<svg xmlns="http://www.w3.org/2000/svg" width="141.119" height="171.67" viewBox="0 0 141.119 171.67">
  <g id="llaves" transform="translate(-45.558 0)">
    <g id="Grupo_85110" data-name="Grupo 85110" transform="translate(48.212 37.717)">
      <path id="Trazado_146014" data-name="Trazado 146014" d="M132.638,160.323a17.275,17.275,0,0,1,1.177-34.409A30.766,30.766,0,0,1,147.6,115.341a30.688,30.688,0,0,0-38.492,44.807L55.249,214.01a6.066,6.066,0,1,0,8.578,8.578l7.135-7.135L76.41,220.9a6.066,6.066,0,0,0,8.578-8.578l-5.448-5.448,6.524-6.524,5.448,5.448a6.066,6.066,0,1,0,8.578-8.578l-5.447-5.448,23.047-23.046a30.727,30.727,0,0,0,27.987,3.08A30.806,30.806,0,0,1,132.638,160.323Z" transform="translate(-53.472 -112.49)" fill="#ffca28"/>
      <g id="Grupo_85108" data-name="Grupo 85108" transform="translate(69.601 0.171)">
        <path id="Trazado_146015" data-name="Trazado 146015" d="M263.544,130a17.21,17.21,0,0,1,9.907-3.743A30.766,30.766,0,0,1,287.24,115.68,30.631,30.631,0,0,0,277.512,113,37.638,37.638,0,0,0,263.544,130Z" transform="translate(-262.71 -113.001)" fill="#eccd61"/>
        <path id="Trazado_146016" data-name="Trazado 146016" d="M283.658,258.014a30.8,30.8,0,0,1-13.038-11.484,17.194,17.194,0,0,1-9.565-4.347,37.588,37.588,0,0,0,12.872,17.84A30.748,30.748,0,0,0,283.658,258.014Z" transform="translate(-261.056 -198.869)" fill="#eccd61"/>
      </g>
      <path id="Trazado_146017" data-name="Trazado 146017" d="M306.209,114.925a30.682,30.682,0,0,0-8.759,60.087v60.949l8.777,9.418,9.507-9.418v-8.315l-8.1-6.28,8.1-6.28-8.1-6.28,8.1-6.28-8.1-6.28,8.1-6.28V174.773a30.683,30.683,0,0,0-9.524-59.848Zm.184,30.618A8.608,8.608,0,1,1,315,136.935,8.608,8.608,0,0,1,306.393,145.543Z" transform="translate(-201.076 -114.109)" fill="#ffa726"/>
      <g id="Grupo_85109" data-name="Grupo 85109" transform="translate(101.584 0.816)">
        <path id="Trazado_146018" data-name="Trazado 146018" d="M359.993,114.925q-1.527,0-3.018.148a30.684,30.684,0,0,1,7.6,59.32,1.673,1.673,0,0,0-1.095,1.57v14.006l-6.389,4.955a1.676,1.676,0,0,0,0,2.65l6.389,4.955-6.389,4.955a1.676,1.676,0,0,0,0,2.649l6.389,4.955-6.389,4.955a1.676,1.676,0,0,0,0,2.649l6.389,4.955v8.315l-6.369,6.309,2.9,3.109,9.507-9.418v-8.315l-8.1-6.28,8.1-6.28-8.1-6.28,8.1-6.28-8.1-6.28,8.1-6.28V174.773a30.683,30.683,0,0,0-9.524-59.848Z" transform="translate(-356.444 -114.925)" fill="#eaa949"/>
      </g>
    </g>
    <g id="Grupo_85111" data-name="Grupo 85111" transform="translate(45.558 0)">
      <path id="Trazado_146019" data-name="Trazado 146019" d="M142.121,100.47v27.4a2.52,2.52,0,1,0,5.039,0V98.649a2.519,2.519,0,0,0-1.8-2.415A28.443,28.443,0,0,1,130.9,86.2,27.963,27.963,0,0,1,125.2,69.182,28.241,28.241,0,0,1,161.87,42.25a29.637,29.637,0,0,1-3.522,8.165,11.178,11.178,0,1,0,3.971,3.149,34.675,34.675,0,0,0,4.238-9.364,28.261,28.261,0,0,1,8.685,7.09,2.52,2.52,0,0,0,3.9-3.2A33.272,33.272,0,0,0,167.6,39.086,34.71,34.71,0,1,0,101.88,49.75a33.367,33.367,0,0,0-1.251,35.257l-23.12,23.12a2.52,2.52,0,1,0,3.564,3.564l24.532-24.532a2.52,2.52,0,0,0,.316-3.178A28.223,28.223,0,0,1,135.93,40.9a33.52,33.52,0,0,0-8.665,7.752,19.825,19.825,0,0,0-1.356,39.218c.316.462.639.921.979,1.37a33.44,33.44,0,0,0,7.159,6.957,28.222,28.222,0,0,1-20.231-4.325,2.52,2.52,0,0,0-3.178.315L87.545,115.283a2.52,2.52,0,0,0,0,3.563L93,124.305a3.558,3.558,0,1,1-5.032,5.031l-5.458-5.458a2.52,2.52,0,0,0-3.563,0l-6.537,6.537a2.535,2.535,0,0,0,0,3.564l5.458,5.458a3.558,3.558,0,1,1-5.031,5.032l-5.458-5.459a2.52,2.52,0,0,0-3.563,0l-7.149,7.149a3.558,3.558,0,1,1-5.032-5.032l22.31-22.31a2.52,2.52,0,1,0-3.563-3.564L48.072,137.564a8.6,8.6,0,0,0,12.159,12.159l5.368-5.368,3.677,3.677a8.6,8.6,0,0,0,12.159-12.159L77.758,132.2l2.973-2.973,3.676,3.676a8.6,8.6,0,1,0,12.159-12.158l-3.676-3.677,19.9-19.9a33.313,33.313,0,0,0,27.583,2.606c.577.248,1.159.484,1.75.7ZM153.6,54.39a6.085,6.085,0,0,1,1.588.217,29.632,29.632,0,0,1-7.684,6.087c0-.066-.01-.131-.01-.2A6.113,6.113,0,0,1,153.6,54.39Zm6.106,6.106a6.1,6.1,0,0,1-9.972,4.721,34.666,34.666,0,0,0,9.346-7.4A6.064,6.064,0,0,1,159.707,60.5Zm-53.792-15.65c-.157.157-.306.32-.46.48A29.674,29.674,0,1,1,162.84,34.712c0,.852-.04,1.7-.112,2.534a33.334,33.334,0,0,0-20.241.523A33.379,33.379,0,0,0,105.915,44.846Zm17.491,10.008a32.991,32.991,0,0,0-2.415,6.918,29.52,29.52,0,0,1-3.633-1.948,14.742,14.742,0,0,1,6.048-4.971Zm-4.432,23.97A14.8,14.8,0,0,1,115.188,64.4a34.488,34.488,0,0,0,5.047,2.524c-.05.746-.078,1.5-.078,2.256a33.112,33.112,0,0,0,2.325,12.246,14.775,14.775,0,0,1-3.509-2.6Z" transform="translate(-45.558 0)"/>
      <path id="Trazado_146020" data-name="Trazado 146020" d="M376.016,168.379a2.52,2.52,0,0,0-4.721,1.764,28.254,28.254,0,0,1-17.684,36.706,2.52,2.52,0,0,0-1.738,2.4v13.991l-7.138,5.535a2.536,2.536,0,0,0,0,3.982l5.546,4.3-5.546,4.3a2.536,2.536,0,0,0,0,3.982l5.546,4.3-5.546,4.3a2.536,2.536,0,0,0,0,3.982l7.138,5.535V269.5l-6.934,6.869-6.346-6.81V248.78a2.52,2.52,0,0,0-5.04,0v21.774a2.521,2.521,0,0,0,.676,1.718l8.794,9.437a2.535,2.535,0,0,0,3.617.072l9.526-9.437a2.52,2.52,0,0,0,.746-1.79v-8.332a2.52,2.52,0,0,0-.976-1.991l-5.546-4.3,5.546-4.3a2.536,2.536,0,0,0,0-3.982l-5.546-4.3,5.546-4.3a2.536,2.536,0,0,0,0-3.982l-5.546-4.3,5.546-4.3a2.52,2.52,0,0,0,.976-1.991v-13.45a33.3,33.3,0,0,0,19.1-42.64Z" transform="translate(-236.99 -110.834)"/>
    </g>
  </g>
</svg>
