<svg xmlns="http://www.w3.org/2000/svg" width="37.022" height="60" viewBox="0 0 37.022 60">
  <g id="hourglass" transform="translate(-98.042)">
    <g id="_x33_6_hourglass" transform="translate(98.921 0.879)">
      <path id="Trazado_147652" data-name="Trazado 147652" d="M159.384,47.374v-4.32H129.808v4.32a21.644,21.644,0,0,0,8.939,17.436,3.954,3.954,0,0,1,.006,6.394,21.637,21.637,0,0,0-8.945,17.439v4.32h29.576v-4.32A21.637,21.637,0,0,0,150.439,71.2a3.964,3.964,0,0,1-1.624-3.195h0a3.972,3.972,0,0,1,1.631-3.2,21.645,21.645,0,0,0,8.939-17.436Z" transform="translate(-126.964 -38.888)" fill="#d8ecfe"/>
      <path id="Trazado_147654" data-name="Trazado 147654" d="M158.929,357.363v-.575c0-2.857,1.478-5.56,4.111-7.727a11.528,11.528,0,0,1,14.529,0c2.633,2.167,4.111,4.871,4.111,7.727v.575Z" transform="translate(-152.673 -306.759)" fill="#ffca28"/>
      <path id="Trazado_147655" data-name="Trazado 147655" d="M107.589,11.666h31.168a2.084,2.084,0,0,0,0-4.166H107.589a2.084,2.084,0,0,0,0,4.166Z" transform="translate(-105.541 -7.5)" fill="#26a69a"/>
      <path id="Trazado_147656" data-name="Trazado 147656" d="M107.589,473.112h31.168a2.084,2.084,0,0,0,0-4.166H107.589a2.084,2.084,0,0,0,0,4.166Z" transform="translate(-105.541 -414.87)" fill="#26a69a"/>
      <path id="Trazado_147657" data-name="Trazado 147657" d="M160.62,102.586a18.008,18.008,0,0,0,5,9.957,8.651,8.651,0,0,0,12.349,0,18.007,18.007,0,0,0,5-9.958H160.62Z" transform="translate(-154.165 -91.443)" fill="#ffca28"/>
      <path id="Trazado_147660" data-name="Trazado 147660" d="M334.783,385.4a21.254,21.254,0,0,1,.719,5.471v.848h1.424v-.575A9.177,9.177,0,0,0,334.783,385.4Z" transform="translate(-307.919 -341.117)" fill="#ffc344"/>
      <path id="Trazado_147661" data-name="Trazado 147661" d="M304.359,102.587a21.523,21.523,0,0,1-4.662,10.869,8.664,8.664,0,0,0,1.054-.911,18.007,18.007,0,0,0,5-9.958Z" transform="translate(-276.944 -91.444)" fill="#f6ab31"/>
    </g>
    <g id="Grupo_85280" data-name="Grupo 85280" transform="translate(98.042 0)">
      <path id="Trazado_147662" data-name="Trazado 147662" d="M151.429,350.168v.575a.879.879,0,0,0,.879.879h22.751a.879.879,0,0,0,.879-.879v-.575a11.023,11.023,0,0,0-4.431-8.406,12.407,12.407,0,0,0-15.646,0A11.023,11.023,0,0,0,151.429,350.168Zm5.548-7.049a10.649,10.649,0,0,1,13.412,0,9.307,9.307,0,0,1,3.784,6.744H153.193A9.307,9.307,0,0,1,156.977,343.119Z" transform="translate(-145.173 -299.26)"/>
      <path id="Trazado_147663" data-name="Trazado 147663" d="M100.886,5.922V9.365a22.283,22.283,0,0,0,3.076,11.27.879.879,0,1,0,1.516-.89,20.523,20.523,0,0,1-2.834-10.379V5.924h27.818V9.365a20.548,20.548,0,0,1-6.022,14.521h0a21.511,21.511,0,0,1-2.558,2.206,4.833,4.833,0,0,0-.007,7.812A20.928,20.928,0,0,1,129.35,44a.879.879,0,1,0,1.662-.571,22.677,22.677,0,0,0-8.1-10.943,3.076,3.076,0,0,1,.007-4.977,23.281,23.281,0,0,0,2.767-2.387s0,0,0,0a22.3,22.3,0,0,0,6.53-15.757V5.922A2.962,2.962,0,0,0,132.137,0H100.968a2.943,2.943,0,0,0-2.926,2.962,2.949,2.949,0,0,0,2.844,2.96Zm.083-4.164h31.169a1.188,1.188,0,0,1,1.169,1.2,1.188,1.188,0,0,1-1.169,1.2H100.968a1.188,1.188,0,0,1-1.169-1.2,1.187,1.187,0,0,1,1.169-1.2Z" transform="translate(-98.042 0)"/>
      <path id="Trazado_147664" data-name="Trazado 147664" d="M132.219,224.565a42.336,42.336,0,0,0-.213-6.5.879.879,0,1,0-1.741.244,40.888,40.888,0,0,1,.2,6.257H102.643c0-3.809-.239-6.935,1.573-11.291v0a21.07,21.07,0,0,1,7.012-8.878,4.833,4.833,0,0,0-.006-7.812,21.431,21.431,0,0,1-3.447-3.161.879.879,0,1,0-1.323,1.157,23.181,23.181,0,0,0,3.73,3.421,3.076,3.076,0,0,1,.006,4.977,22.828,22.828,0,0,0-7.6,9.62v0c-1.944,4.675-1.707,8.007-1.707,11.968a2.888,2.888,0,0,0-1.992.871,2.97,2.97,0,0,0,2.075,5.051h31.169a2.962,2.962,0,0,0,.082-5.922Zm-.082,4.164H100.968a1.2,1.2,0,0,1,0-2.409h31.169a1.2,1.2,0,0,1,0,2.409Z" transform="translate(-98.042 -170.488)"/>
      <path id="Trazado_147665" data-name="Trazado 147665" d="M250.256,225.879a.879.879,0,0,0-1.758,0v1.172a.879.879,0,0,0,1.758,0Z" transform="translate(-230.866 -198.633)"/>
      <path id="Trazado_147666" data-name="Trazado 147666" d="M249.377,305.93a.879.879,0,0,0,.879-.879v-1.172a.879.879,0,0,0-1.758,0v1.172A.879.879,0,0,0,249.377,305.93Z" transform="translate(-230.866 -267.492)"/>
      <path id="Trazado_147667" data-name="Trazado 147667" d="M249.377,264a.879.879,0,0,0-.879.879v1.172a.879.879,0,0,0,1.758,0v-1.172A.879.879,0,0,0,249.377,264Z" transform="translate(-230.866 -233.063)"/>
      <path id="Trazado_147668" data-name="Trazado 147668" d="M177.222,96.1a.879.879,0,0,0-.869-1.009H154a.879.879,0,0,0-.869,1.009,18.817,18.817,0,0,0,5.245,10.443,9.53,9.53,0,0,0,13.6,0A18.815,18.815,0,0,0,177.222,96.1Zm-12.046,11.54a7.826,7.826,0,0,1-5.548-2.329,17.1,17.1,0,0,1-4.578-8.463H175.3a17.1,17.1,0,0,1-4.578,8.463A7.825,7.825,0,0,1,165.176,107.636Z" transform="translate(-146.665 -83.944)"/>
    </g>
  </g>
</svg>
