<svg xmlns="http://www.w3.org/2000/svg" width="49.649" height="62.061" viewBox="0 0 49.649 62.061">
  <g id="surface1" transform="translate(-0.387)">
    <path id="Trazado_147723" data-name="Trazado 147723" d="M316.47,249.289V223.967a8.272,8.272,0,0,0-2.683-6.1l-9.729-8.915h-5.172v40.339" transform="translate(-267.47 -187.228)" fill="#ffb782"/>
    <path id="Trazado_147724" data-name="Trazado 147724" d="M307.162,211.794l-3.1-2.845h-5.172v17.584h8.275Zm0,0" transform="translate(-267.47 -187.228)" fill="#ffae73"/>
    <path id="Trazado_147725" data-name="Trazado 147725" d="M14.473,9.949H41.366A4.138,4.138,0,0,1,45.5,14.087V65.8a4.138,4.138,0,0,1-4.137,4.137H14.473A4.138,4.138,0,0,1,10.336,65.8V14.087A4.138,4.138,0,0,1,14.473,9.949Zm0,0" transform="translate(-8.915 -8.915)" fill="#26a69a"/>
    <path id="Trazado_147726" data-name="Trazado 147726" d="M253.274,14.087v2.069h6.206V14.087a4.138,4.138,0,0,0-4.137-4.137h-6.206A4.138,4.138,0,0,1,253.274,14.087Zm0,0" transform="translate(-222.891 -8.915)" fill="#26a69a"/>
    <path id="Trazado_147727" data-name="Trazado 147727" d="M45.5,69.648H10.336V115.16H45.5Zm0,0" transform="translate(-8.915 -62.408)" fill="#ffca28"/>
    <path id="Trazado_147728" data-name="Trazado 147728" d="M96.266,115.16H122.5V69.648h-5.548Zm0,0" transform="translate(-85.912 -62.408)" fill="#ffca28"/>
    <path id="Trazado_147729" data-name="Trazado 147729" d="M51.171,109.449h4.137a1.035,1.035,0,0,1,1.034,1.034v4.137a1.035,1.035,0,0,1-1.034,1.034H51.171a1.035,1.035,0,0,1-1.034-1.034v-4.137A1.035,1.035,0,0,1,51.171,109.449Zm0,0" transform="translate(-44.578 -98.072)" fill="#1565c0"/>
    <path id="Trazado_147730" data-name="Trazado 147730" d="M150.671,109.449h4.137a1.035,1.035,0,0,1,1.034,1.034v4.137a1.035,1.035,0,0,1-1.034,1.034h-4.137a1.035,1.035,0,0,1-1.034-1.034v-4.137A1.035,1.035,0,0,1,150.671,109.449Zm0,0" transform="translate(-133.735 -98.072)" fill="#4dd0e1"/>
    <path id="Trazado_147731" data-name="Trazado 147731" d="M250.171,109.449h4.137a1.035,1.035,0,0,1,1.034,1.034v4.137a1.035,1.035,0,0,1-1.034,1.034h-4.137a1.035,1.035,0,0,1-1.034-1.034v-4.137A1.035,1.035,0,0,1,250.171,109.449Zm0,0" transform="translate(-222.891 -98.072)" fill="#039be5"/>
    <path id="Trazado_147732" data-name="Trazado 147732" d="M51.171,208.949h4.137a1.035,1.035,0,0,1,1.034,1.034v4.137a1.035,1.035,0,0,1-1.034,1.034H51.171a1.035,1.035,0,0,1-1.034-1.034v-4.137A1.035,1.035,0,0,1,51.171,208.949Zm0,0" transform="translate(-44.578 -187.228)" fill="#039be5"/>
    <path id="Trazado_147733" data-name="Trazado 147733" d="M51.171,308.449h4.137a1.035,1.035,0,0,1,1.034,1.034v4.137a1.035,1.035,0,0,1-1.034,1.034H51.171a1.035,1.035,0,0,1-1.034-1.034v-4.137A1.035,1.035,0,0,1,51.171,308.449Zm0,0" transform="translate(-44.578 -276.385)" fill="#4dd0e1"/>
    <path id="Trazado_147734" data-name="Trazado 147734" d="M150.671,208.949h4.137a1.035,1.035,0,0,1,1.034,1.034v4.137a1.035,1.035,0,0,1-1.034,1.034h-4.137a1.035,1.035,0,0,1-1.034-1.034v-4.137A1.035,1.035,0,0,1,150.671,208.949Zm0,0" transform="translate(-133.735 -187.228)" fill="#4dd0e1"/>
    <path id="Trazado_147735" data-name="Trazado 147735" d="M250.171,208.949h4.137a1.035,1.035,0,0,1,1.034,1.034v4.137a1.035,1.035,0,0,1-1.034,1.034h-4.137a1.035,1.035,0,0,1-1.034-1.034v-4.137A1.035,1.035,0,0,1,250.171,208.949Zm0,0" transform="translate(-222.891 -187.228)" fill="#039be5"/>
    <path id="Trazado_147736" data-name="Trazado 147736" d="M150.671,308.449h4.137a1.035,1.035,0,0,1,1.034,1.034v4.137a1.035,1.035,0,0,1-1.034,1.034h-4.137a1.035,1.035,0,0,1-1.034-1.034v-4.137A1.035,1.035,0,0,1,150.671,308.449Zm0,0" transform="translate(-133.735 -276.385)" fill="#1565c0"/>
    <path id="Trazado_147737" data-name="Trazado 147737" d="M51.171,407.949h4.137a1.035,1.035,0,0,1,1.034,1.034v4.137a1.035,1.035,0,0,1-1.034,1.034H51.171a1.035,1.035,0,0,1-1.034-1.034v-4.137A1.035,1.035,0,0,1,51.171,407.949Zm0,0" transform="translate(-44.578 -365.541)" fill="#039be5"/>
    <path id="Trazado_147738" data-name="Trazado 147738" d="M150.671,407.949h4.137a1.035,1.035,0,0,1,1.034,1.034v4.137a1.035,1.035,0,0,1-1.034,1.034h-4.137a1.035,1.035,0,0,1-1.034-1.034v-4.137A1.035,1.035,0,0,1,150.671,407.949Zm0,0" transform="translate(-133.735 -365.541)" fill="#4dd0e1"/>
    <path id="Trazado_147739" data-name="Trazado 147739" d="M169.535,537.3H171.6v2.069h-2.069Zm0,0" transform="translate(-151.565 -481.446)" fill="#3269a1"/>
    <path id="Trazado_147740" data-name="Trazado 147740" d="M10.336,69.648H45.5v2.069H10.336Zm0,0" transform="translate(-8.915 -62.408)" fill="#ffa726"/>
    <path id="Trazado_147741" data-name="Trazado 147741" d="M10.336,487.551H45.5v2.069H10.336Zm0,0" transform="translate(-8.915 -436.868)" fill="#ffa726"/>
    <path id="Trazado_147742" data-name="Trazado 147742" d="M251.112,336.648V334.8a24.635,24.635,0,0,1,4.137-13.665l-7.24-7.24a4.39,4.39,0,0,1,0-6.208c.1-.1.208-.2.318-.288a4.516,4.516,0,0,1,6.02.424L269.73,323.2v13.447Zm0,0" transform="translate(-220.73 -274.587)" fill="#ffb782"/>
    <path id="Trazado_147743" data-name="Trazado 147743" d="M347.068,347.719a1.031,1.031,0,0,1-.731-.3l-7.241-7.24a1.034,1.034,0,0,1,1.463-1.463l7.24,7.24a1.035,1.035,0,0,1-.731,1.766Zm0,0" transform="translate(-303.239 -303.242)" fill="#f2a46f"/>
    <path id="Trazado_147744" data-name="Trazado 147744" d="M375.9,231.465l-1.394,1.525,6.344,5.815a7.256,7.256,0,0,1,2.345,5.338v25.321h2.069V244.143a9.338,9.338,0,0,0-3.018-6.863Zm0,0" transform="translate(-335.23 -207.403)"/>
    <path id="Trazado_147745" data-name="Trazado 147745" d="M32.451,0H5.558A5.178,5.178,0,0,0,.387,5.172V56.889a5.178,5.178,0,0,0,5.172,5.172H31.417V60.21a23.515,23.515,0,0,1,3.964-13.091,1.033,1.033,0,0,0-.13-1.305l-7.24-7.241a3.354,3.354,0,0,1,0-4.743c.078-.078.159-.151.244-.221a3.483,3.483,0,0,1,4.631.357L43.1,44.176l1.463-1.463-6.937-6.939V5.172A5.178,5.178,0,0,0,32.451,0Zm3.1,33.705-1.2-1.2a5.568,5.568,0,0,0-7.41-.49,5.423,5.423,0,0,0-.745,7.635q.168.2.352.39L33.2,46.687a25.575,25.575,0,0,0-3.844,13.3H5.558a3.1,3.1,0,0,1-3.1-3.1v-3.1H28.314V51.717H2.455V8.274h33.1Zm0-27.5H2.455V5.172a3.1,3.1,0,0,1,3.1-3.1H32.451a3.1,3.1,0,0,1,3.1,3.1Zm0,0"/>
    <path id="Trazado_147746" data-name="Trazado 147746" d="M42.256,107.774h4.137a2.068,2.068,0,0,0,2.069-2.069v-4.137A2.068,2.068,0,0,0,46.393,99.5H42.256a2.068,2.068,0,0,0-2.069,2.069v4.137A2.068,2.068,0,0,0,42.256,107.774Zm0-6.206h4.137v4.137H42.256Zm0,0" transform="translate(-35.663 -89.157)"/>
    <path id="Trazado_147747" data-name="Trazado 147747" d="M141.756,107.774h4.137a2.068,2.068,0,0,0,2.069-2.069v-4.137a2.068,2.068,0,0,0-2.069-2.069h-4.137a2.068,2.068,0,0,0-2.069,2.069v4.137A2.068,2.068,0,0,0,141.756,107.774Zm0-6.206h4.137v4.137h-4.137Zm0,0" transform="translate(-124.82 -89.157)"/>
    <path id="Trazado_147748" data-name="Trazado 147748" d="M241.256,107.774h4.137a2.068,2.068,0,0,0,2.069-2.069v-4.137a2.068,2.068,0,0,0-2.069-2.069h-4.137a2.068,2.068,0,0,0-2.069,2.069v4.137A2.068,2.068,0,0,0,241.256,107.774Zm0-6.206h4.137v4.137h-4.137Zm0,0" transform="translate(-213.976 -89.157)"/>
    <path id="Trazado_147749" data-name="Trazado 147749" d="M42.256,207.274h4.137a2.068,2.068,0,0,0,2.069-2.069v-4.137A2.068,2.068,0,0,0,46.393,199H42.256a2.068,2.068,0,0,0-2.069,2.069v4.137A2.068,2.068,0,0,0,42.256,207.274Zm0-6.206h4.137v4.137H42.256Zm0,0" transform="translate(-35.663 -178.313)"/>
    <path id="Trazado_147750" data-name="Trazado 147750" d="M42.256,306.774h4.137a2.068,2.068,0,0,0,2.069-2.069v-4.137a2.068,2.068,0,0,0-2.069-2.069H42.256a2.068,2.068,0,0,0-2.069,2.069v4.137A2.068,2.068,0,0,0,42.256,306.774Zm0-6.206h4.137v4.137H42.256Zm0,0" transform="translate(-35.663 -267.47)"/>
    <path id="Trazado_147751" data-name="Trazado 147751" d="M141.756,207.274h4.137a2.068,2.068,0,0,0,2.069-2.069v-4.137A2.068,2.068,0,0,0,145.893,199h-4.137a2.068,2.068,0,0,0-2.069,2.069v4.137A2.068,2.068,0,0,0,141.756,207.274Zm0-6.206h4.137v4.137h-4.137Zm0,0" transform="translate(-124.82 -178.313)"/>
    <path id="Trazado_147752" data-name="Trazado 147752" d="M241.256,207.274h4.137a2.068,2.068,0,0,0,2.069-2.069v-4.137A2.068,2.068,0,0,0,245.393,199h-4.137a2.068,2.068,0,0,0-2.069,2.069v4.137A2.068,2.068,0,0,0,241.256,207.274Zm0-6.206h4.137v4.137h-4.137Zm0,0" transform="translate(-213.976 -178.313)"/>
    <path id="Trazado_147753" data-name="Trazado 147753" d="M141.756,306.774h4.137a2.068,2.068,0,0,0,2.069-2.069v-4.137a2.068,2.068,0,0,0-2.069-2.069h-4.137a2.068,2.068,0,0,0-2.069,2.069v4.137A2.068,2.068,0,0,0,141.756,306.774Zm0-6.206h4.137v4.137h-4.137Zm0,0" transform="translate(-124.82 -267.47)"/>
    <path id="Trazado_147754" data-name="Trazado 147754" d="M42.256,406.275h4.137a2.068,2.068,0,0,0,2.069-2.069v-4.137A2.068,2.068,0,0,0,46.393,398H42.256a2.068,2.068,0,0,0-2.069,2.069v4.137A2.068,2.068,0,0,0,42.256,406.275Zm0-6.206h4.137v4.137H42.256Zm0,0" transform="translate(-35.663 -356.626)"/>
    <path id="Trazado_147755" data-name="Trazado 147755" d="M141.756,406.275h4.137a2.068,2.068,0,0,0,2.069-2.069v-4.137A2.068,2.068,0,0,0,145.893,398h-4.137a2.068,2.068,0,0,0-2.069,2.069v4.137A2.068,2.068,0,0,0,141.756,406.275Zm0-6.206h4.137v4.137h-4.137Zm0,0" transform="translate(-124.82 -356.626)"/>
    <path id="Trazado_147756" data-name="Trazado 147756" d="M169.535,537.3H171.6v2.069h-2.069Zm0,0" transform="translate(-151.565 -481.446)"/>
  </g>
</svg>
