<svg xmlns="http://www.w3.org/2000/svg" width="120" height="81.748" viewBox="0 0 120 81.748">
  <g id="simplificar" transform="translate(0 -81.603)">
    <path id="Trazado_147556" data-name="Trazado 147556" d="M39.069,168.665l31.5-31.5h33.651v14.062l21.094-21.094-21.094-21.094V123.1H70.568l-31.5-31.5H10v77.06H39.069Z" transform="translate(-7.656 -7.657)" fill="#039be5" fill-rule="evenodd"/>
    <g id="Grupo_85179" data-name="Grupo 85179" transform="translate(0 81.603)">
      <path id="Trazado_147557" data-name="Trazado 147557" d="M119.313,120.82,98.22,99.726a2.344,2.344,0,0,0-4,1.657V113.1H63.882L56.276,105.5a2.344,2.344,0,0,0-3.315,3.315l8.292,8.292a2.344,2.344,0,0,0,1.657.686H96.562a2.344,2.344,0,0,0,2.344-2.344v-8.4l15.435,15.435L98.906,137.913v-8.4a2.344,2.344,0,0,0-2.344-2.344H62.911a2.344,2.344,0,0,0-1.657.686L30.441,158.664H4.688V143.571H27.154l-.686.686a2.344,2.344,0,0,0,3.315,3.315l4.687-4.687a2.358,2.358,0,0,0,0-3.315l-4.687-4.687a2.344,2.344,0,0,0-3.315,3.315l.686.686H4.688V124.821H45.9l-.686.686a2.344,2.344,0,0,0,3.315,3.315l4.687-4.687a2.358,2.358,0,0,0,0-3.315l-4.687-4.687a2.344,2.344,0,0,0-3.315,3.315l.686.686H4.688V106.071H27.154l-.686.686a2.344,2.344,0,0,0,3.315,3.315l4.687-4.687a2.358,2.358,0,0,0,0-3.315l-4.687-4.687a2.344,2.344,0,0,0-3.315,3.315l.686.686H4.688V86.291H30.441l7.6,7.6a2.344,2.344,0,0,0,3.315-3.315L33.07,82.289a2.344,2.344,0,0,0-1.657-.686H2.344A2.344,2.344,0,0,0,0,83.947v77.06a2.344,2.344,0,0,0,2.344,2.344H31.412a2.344,2.344,0,0,0,1.657-.686l30.813-30.813H94.219v11.719a2.353,2.353,0,0,0,4,1.657l21.094-21.094a2.343,2.343,0,0,0,0-3.314Z" transform="translate(0 -81.603)"/>
      <path id="Trazado_147558" data-name="Trazado 147558" d="M193.583,153.487a2.344,2.344,0,0,0,1.8-3.844h0a2.344,2.344,0,1,0-1.8,3.846Z" transform="translate(-146.419 -133.05)"/>
    </g>
  </g>
</svg>
