<svg xmlns="http://www.w3.org/2000/svg" width="110" height="110" viewBox="0 0 110 110">
  <g id="Grupo_86711" data-name="Grupo 86711" transform="translate(-1164.992 -1594)">
    <g id="codificacion" transform="translate(1162.992 1592)">
      <path id="Trazado_147604" data-name="Trazado 147604" d="M79.667,47.5V42h-5.5V65.833H32v5.5H79.667Z" transform="translate(25 33.333)" fill="#26a69a"/>
      <path id="Trazado_147605" data-name="Trazado 147605" d="M77.167,68.833H35v5.5H82.667V45h-5.5Z" transform="translate(27.5 35.833)" fill="#26a69a"/>
      <path id="Trazado_147606" data-name="Trazado 147606" d="M58,3H6.667A3.667,3.667,0,0,0,3,6.667v7.185H61.667V6.667A3.667,3.667,0,0,0,58,3Z" transform="translate(0.833 0.833)" fill="#039be5"/>
      <path id="Trazado_147607" data-name="Trazado 147607" d="M3,8.919V49.4a3.667,3.667,0,0,0,3.667,3.667H58A3.667,3.667,0,0,0,61.667,49.4V8.919Z" transform="translate(0.833 5.766)" fill="#ffca28"/>
      <path id="Trazado_147608" data-name="Trazado 147608" d="M29,39V68.333H76.667V39Z" transform="translate(22.5 30.833)" fill="#26a69a"/>
      <path id="Trazado_147611" data-name="Trazado 147611" d="M58.833,2H7.5A5.5,5.5,0,0,0,2,7.5V55.167a5.5,5.5,0,0,0,5.5,5.5H58.833a5.5,5.5,0,0,0,5.5-5.5V7.5A5.5,5.5,0,0,0,58.833,2ZM7.5,5.667H58.833A1.833,1.833,0,0,1,60.667,7.5v5.351h-55V7.5A1.833,1.833,0,0,1,7.5,5.667ZM58.833,57H7.5a1.833,1.833,0,0,1-1.833-1.833V16.518h55V55.167A1.833,1.833,0,0,1,58.833,57Z" transform="translate(0)"/>
      <path id="Trazado_147612" data-name="Trazado 147612" d="M6,5H9.667V8.667H6Z" transform="translate(3.333 2.5)"/>
      <path id="Trazado_147613" data-name="Trazado 147613" d="M10,5h3.667V8.667H10Z" transform="translate(6.667 2.5)"/>
      <path id="Trazado_147614" data-name="Trazado 147614" d="M14,5h3.667V8.667H14Z" transform="translate(10 2.5)"/>
      <path id="Trazado_147615" data-name="Trazado 147615" d="M12,26h3.667v3.667H12Z" transform="translate(8.333 20)"/>
      <path id="Trazado_147616" data-name="Trazado 147616" d="M16,26H38v3.667H16Z" transform="translate(11.667 20)"/>
      <path id="Trazado_147617" data-name="Trazado 147617" d="M12,22h3.667v3.667H12Z" transform="translate(8.333 16.667)"/>
      <path id="Trazado_147618" data-name="Trazado 147618" d="M16,22H38v3.667H16Z" transform="translate(11.667 16.667)"/>
      <path id="Trazado_147619" data-name="Trazado 147619" d="M70.147,43.375a1.833,1.833,0,0,0-2.592,0L65.5,45.43V27.857a5.5,5.5,0,0,0-5.5-5.5H44.259L46.314,20.3a1.833,1.833,0,1,0-2.593-2.593l-5.184,5.187a1.833,1.833,0,0,0,0,2.592l5.185,5.187a1.833,1.833,0,1,0,2.593-2.593l-2.055-2.057H60a1.833,1.833,0,0,1,1.833,1.833V45.43l-2.055-2.055a1.833,1.833,0,1,0-2.593,2.593l5.185,5.186a1.833,1.833,0,0,0,2.592,0l5.185-5.186a1.833,1.833,0,0,0,0-2.592Z" transform="translate(30 12.643)"/>
      <path id="Trazado_147620" data-name="Trazado 147620" d="M40.32,60.37l-5.187-5.186a1.833,1.833,0,1,0-2.593,2.593L34.6,59.833H18.857A1.833,1.833,0,0,1,17.024,58V42.259l2.057,2.057a1.833,1.833,0,1,0,2.593-2.593l-5.187-5.186a1.833,1.833,0,0,0-2.592,0L8.708,41.723A1.833,1.833,0,1,0,11.3,44.316l2.057-2.057V58a5.5,5.5,0,0,0,5.5,5.5H34.6l-2.057,2.057a1.833,1.833,0,1,0,2.593,2.593l5.186-5.187a1.833,1.833,0,0,0,0-2.592Z" transform="translate(5.143 28.334)"/>
      <path id="Trazado_147621" data-name="Trazado 147621" d="M19.333,24a1.833,1.833,0,0,1-1.016-.308l-5.5-3.667a1.833,1.833,0,0,1,0-3.051l5.5-3.667a1.834,1.834,0,1,1,2.035,3.051L17.133,18.5l3.212,2.141A1.833,1.833,0,0,1,19.333,24Z" transform="translate(8.334 9.166)"/>
      <path id="Trazado_147622" data-name="Trazado 147622" d="M24.834,24a1.833,1.833,0,0,1-1.019-3.359L27.034,18.5l-3.212-2.141a1.834,1.834,0,0,1,2.035-3.051l5.5,3.667a1.833,1.833,0,0,1,0,3.051l-5.5,3.667A1.833,1.833,0,0,1,24.834,24Z" transform="translate(17.499 9.166)"/>
      <path id="Trazado_147623" data-name="Trazado 147623" d="M19.834,26.668a1.833,1.833,0,0,1-1.74-2.413l3.667-11a1.835,1.835,0,0,1,3.483,1.159l-3.667,11a1.833,1.833,0,0,1-1.743,1.254Z" transform="translate(13.333 8.332)"/>
      <path id="Trazado_147624" data-name="Trazado 147624" d="M48.833,49.667H52.5A1.833,1.833,0,0,0,52.5,46H48.833a1.833,1.833,0,0,0,0,3.667Z" transform="translate(37.5 36.667)"/>
      <path id="Trazado_147625" data-name="Trazado 147625" d="M34.833,49.667H38.5A1.833,1.833,0,1,0,38.5,46H34.833a1.833,1.833,0,1,0,0,3.667Z" transform="translate(25.833 36.667)"/>
      <path id="Trazado_147626" data-name="Trazado 147626" d="M88.5,49H84.833V45.333A1.833,1.833,0,0,0,83,43.5H79.333V39.833A1.833,1.833,0,0,0,77.5,38H29.833A1.833,1.833,0,0,0,28,39.833V69.167A1.833,1.833,0,0,0,29.833,71H33.5v3.667A1.833,1.833,0,0,0,35.333,76.5H39v3.667A1.833,1.833,0,0,0,40.833,82H88.5a1.833,1.833,0,0,0,1.833-1.833V50.833A1.833,1.833,0,0,0,88.5,49ZM31.667,41.667h44V67.333h-44ZM37.167,71H77.5a1.833,1.833,0,0,0,1.833-1.833v-22h1.833V72.833h-44Zm49.5,7.333h-44V76.5H83a1.833,1.833,0,0,0,1.833-1.833v-22h1.833Z" transform="translate(21.667 30)"/>
      <path id="Trazado_147627" data-name="Trazado 147627" d="M40.833,55.667a1.833,1.833,0,1,0,0,3.667h1.833v1.833a1.833,1.833,0,1,0,3.667,0V59.333A3.667,3.667,0,0,0,50,55.667V53.833a3.667,3.667,0,0,0-3.667-3.667H42.667V48.333h5.5a1.833,1.833,0,0,0,0-3.667H46.333V42.833a1.833,1.833,0,0,0-3.667,0v1.833A3.667,3.667,0,0,0,39,48.333v1.833a3.667,3.667,0,0,0,3.667,3.667h3.667v1.833Z" transform="translate(30.833 32.5)"/>
      <path id="Trazado_147628" data-name="Trazado 147628" d="M9.833,39.667A1.833,1.833,0,0,1,8,37.833v-22a1.833,1.833,0,0,1,3.667,0v22A1.833,1.833,0,0,1,9.833,39.667Z" transform="translate(5 10)"/>
    </g>
  </g>
</svg>
