<svg xmlns="http://www.w3.org/2000/svg" width="59.999" height="60" viewBox="0 0 59.999 60">
  <g id="certificado" transform="translate(-0.004)">
    <path id="Trazado_147639" data-name="Trazado 147639" d="M58.988,67.656H12.348A2.344,2.344,0,0,1,10,65.313V12.344A2.344,2.344,0,0,1,12.348,10H58.988a2.344,2.344,0,0,1,2.344,2.344V65.313A2.344,2.344,0,0,1,58.988,67.656Z" transform="translate(-8.828 -8.828)" fill="#4dd0e1"/>
    <rect id="Rectángulo_32007" data-name="Rectángulo 32007" width="40.079" height="46.406" transform="translate(6.8 6.797)" fill="#fff"/>
    <path id="Trazado_147640" data-name="Trazado 147640" d="M381.5,310.7v11.016l-3.75-3.731L374,321.711V310.7Z" transform="translate(-330.167 -274.285)" fill="#1565c0"/>
    <path id="Trazado_147641" data-name="Trazado 147641" d="M322.451,119.038h0a2.237,2.237,0,0,1,3.2.856h0a2.237,2.237,0,0,0,2.091,1.207h0a2.237,2.237,0,0,1,2.339,2.339h0a2.237,2.237,0,0,0,1.208,2.091h0a2.237,2.237,0,0,1,.856,3.195h0a2.237,2.237,0,0,0,0,2.415h0a2.237,2.237,0,0,1-.856,3.195h0a2.237,2.237,0,0,0-1.208,2.091h0a2.237,2.237,0,0,1-2.339,2.339h0a2.237,2.237,0,0,0-2.091,1.207h0a2.237,2.237,0,0,1-3.2.856h0a2.237,2.237,0,0,0-2.415,0h0a2.237,2.237,0,0,1-3.2-.856h0a2.237,2.237,0,0,0-2.091-1.207h0a2.237,2.237,0,0,1-2.339-2.339h0a2.237,2.237,0,0,0-1.208-2.091h0a2.237,2.237,0,0,1-.856-3.195h0a2.237,2.237,0,0,0,0-2.415h0a2.237,2.237,0,0,1,.856-3.2h0a2.237,2.237,0,0,0,1.208-2.091h0a2.237,2.237,0,0,1,2.339-2.339h0a2.237,2.237,0,0,0,2.091-1.207h0a2.237,2.237,0,0,1,3.2-.856h0A2.238,2.238,0,0,0,322.451,119.038Z" transform="translate(-273.662 -104.775)" fill="#ffca28"/>
    <path id="Trazado_147642" data-name="Trazado 147642" d="M52.5,52.031A1.172,1.172,0,0,0,51.332,53.2v3.281a1.173,1.173,0,0,1-1.172,1.172H3.52a1.173,1.173,0,0,1-1.172-1.172V3.516A1.173,1.173,0,0,1,3.52,2.344H50.16a1.173,1.173,0,0,1,1.172,1.172V9.727a1.172,1.172,0,0,0,2.344,0V3.516A3.52,3.52,0,0,0,50.16,0H3.52A3.52,3.52,0,0,0,0,3.516V56.484A3.52,3.52,0,0,0,3.52,60H50.16a3.52,3.52,0,0,0,3.516-3.516V53.2A1.172,1.172,0,0,0,52.5,52.031Z" transform="translate(0 0)"/>
    <path id="Trazado_147643" data-name="Trazado 147643" d="M89.249,53.391a1.172,1.172,0,0,0,1.172-1.172V49.172A1.172,1.172,0,0,0,89.249,48H49.17A1.172,1.172,0,0,0,48,49.172V73.664a1.172,1.172,0,0,0,2.344,0V50.344H88.078v1.875A1.172,1.172,0,0,0,89.249,53.391Z" transform="translate(-42.37 -42.375)"/>
    <path id="Trazado_147644" data-name="Trazado 147644" d="M49.166,296.344a1.172,1.172,0,1,0-.829-.343A1.179,1.179,0,0,0,49.166,296.344Z" transform="translate(-42.366 -259.547)"/>
    <path id="Trazado_147645" data-name="Trazado 147645" d="M50.342,333.672a1.172,1.172,0,0,0-2.344,0v13.066a1.172,1.172,0,0,0,1.172,1.172h40.08a1.172,1.172,0,0,0,1.172-1.172V344.16a1.172,1.172,0,0,0-2.344,0v1.406H50.342Z" transform="translate(-42.37 -293.535)"/>
    <path id="Trazado_147646" data-name="Trazado 147646" d="M232.994,350.75l-2.316,2.316-1.44-1.44a2.334,2.334,0,0,0-3.3,0l-.937.937a1.172,1.172,0,0,0,1.657,1.657l.928-.928,1.44,1.44a2.334,2.334,0,0,0,3.3,0l2.325-2.325a1.172,1.172,0,0,0-1.657-1.657Z" transform="translate(-198.33 -309.343)"/>
    <path id="Trazado_147647" data-name="Trazado 147647" d="M161.671,120.538a3.409,3.409,0,0,0-1.3-4.868,1.068,1.068,0,0,1-.575-1,3.409,3.409,0,0,0-3.564-3.564,1.065,1.065,0,0,1-1-.575,3.409,3.409,0,0,0-4.868-1.3h0a1.068,1.068,0,0,1-1.15,0,3.409,3.409,0,0,0-4.868,1.3,1.07,1.07,0,0,1-1,.575,3.409,3.409,0,0,0-3.564,3.564,1.068,1.068,0,0,1-.575,1,3.4,3.4,0,0,0-1.811,3.488H116.95a1.172,1.172,0,0,0,0,2.344H138a1.053,1.053,0,0,1-.093.187,3.417,3.417,0,0,0-.423,2.722,3.371,3.371,0,0,0,.124.372H116.95a1.172,1.172,0,0,0,0,2.344h22.765a1.059,1.059,0,0,1,.07.426,3.409,3.409,0,0,0,3.564,3.564,1.067,1.067,0,0,1,1,.575,3.4,3.4,0,0,0,.522.743v10.944a1.172,1.172,0,0,0,2,.831l2.923-2.908,2.923,2.908a1.172,1.172,0,0,0,2-.831V132.435a3.4,3.4,0,0,0,.522-.743,1.069,1.069,0,0,1,1-.575,3.409,3.409,0,0,0,3.564-3.564,1.068,1.068,0,0,1,.575-1,3.409,3.409,0,0,0,1.3-4.869A1.068,1.068,0,0,1,161.671,120.538Zm-11.057,18.28a1.172,1.172,0,0,0-1.653,0l-1.752,1.743v-7.03a3.418,3.418,0,0,0,2-.534,1.068,1.068,0,0,1,1.15,0,3.416,3.416,0,0,0,1.842.539c.054,0,.107,0,.161-.005v7.031Zm9.083-15.865a1.065,1.065,0,0,1-.408,1.522,3.418,3.418,0,0,0-1.84,3.187,1.065,1.065,0,0,1-1.114,1.114,3.418,3.418,0,0,0-3.187,1.84,1.065,1.065,0,0,1-1.521.408,3.419,3.419,0,0,0-3.68,0,1.066,1.066,0,0,1-1.522-.408,3.417,3.417,0,0,0-3.187-1.84,1.065,1.065,0,0,1-1.114-1.114,3.417,3.417,0,0,0-.928-2.5c-.018-.02-.037-.04-.057-.058a3.389,3.389,0,0,0-.856-.633,1.065,1.065,0,0,1-.408-1.521,3.418,3.418,0,0,0,0-3.68,1.065,1.065,0,0,1,.408-1.522,3.419,3.419,0,0,0,1.84-3.187,1.065,1.065,0,0,1,1.114-1.114,3.418,3.418,0,0,0,3.187-1.84,1.065,1.065,0,0,1,1.521-.408,3.418,3.418,0,0,0,3.68,0,1.066,1.066,0,0,1,1.522.408,3.418,3.418,0,0,0,3.187,1.84,1.065,1.065,0,0,1,1.114,1.114,3.418,3.418,0,0,0,1.84,3.187,1.065,1.065,0,0,1,.408,1.521A3.418,3.418,0,0,0,159.7,122.953Z" transform="translate(-102.207 -95.954)"/>
    <path id="Trazado_147648" data-name="Trazado 147648" d="M383.377,184.9l-3.89,3.89-1.548-1.548a1.172,1.172,0,1,0-1.657,1.657l2.377,2.377a1.172,1.172,0,0,0,1.657,0l4.718-4.718a1.172,1.172,0,0,0-1.657-1.657Z" transform="translate(-331.879 -162.929)"/>
    <path id="Trazado_147649" data-name="Trazado 147649" d="M107.348,119.172A1.172,1.172,0,1,0,107,120,1.181,1.181,0,0,0,107.348,119.172Z" transform="translate(-92.695 -104.172)"/>
    <path id="Trazado_147650" data-name="Trazado 147650" d="M143.5,118a1.172,1.172,0,0,0,0,2.344h5.7a1.172,1.172,0,0,0,0-2.344Z" transform="translate(-125.647 -104.172)"/>
    <path id="Trazado_147651" data-name="Trazado 147651" d="M193.085,294h-13.4a1.172,1.172,0,1,0,0,2.344h13.4a1.172,1.172,0,0,0,0-2.344Z" transform="translate(-157.593 -259.547)"/>
  </g>
</svg>
