<svg id="ui" xmlns="http://www.w3.org/2000/svg" width="62.104" height="62.104" viewBox="0 0 62.104 62.104">
  <path id="Trazado_148300" data-name="Trazado 148300" d="M135.424,10H102.432a2.426,2.426,0,0,0-2.426,2.426V67.253a2.426,2.426,0,0,0,2.426,2.426h32.991a2.426,2.426,0,0,0,2.426-2.426V12.426A2.426,2.426,0,0,0,135.424,10Z" transform="translate(-87.875 -8.787)" fill="#4dd0e1"/>
  <path id="Trazado_148319" data-name="Trazado 148319" d="M0,0H37.844V46.578H0Z" transform="translate(12.131 7.763)" fill="#fff6db"/>
  <rect id="Rectángulo_32718" data-name="Rectángulo 32718" width="7.763" height="7.763" transform="translate(34.493 13.585)" fill="#26a69a"/>
  <rect id="Rectángulo_32719" data-name="Rectángulo 32719" width="7.763" height="7.763" transform="translate(34.493 27.171)" fill="#ffca28"/>
  <rect id="Rectángulo_32720" data-name="Rectángulo 32720" width="7.763" height="7.763" transform="translate(34.493 40.756)" fill="#ffa726"/>
  <rect id="Rectángulo_32721" data-name="Rectángulo 32721" width="7.763" height="7.763" transform="translate(20.903 13.585)" fill="#1565c0"/>
  <rect id="Rectángulo_32722" data-name="Rectángulo 32722" width="7.763" height="7.763" transform="translate(20.903 27.171)" fill="#039be5"/>
  <rect id="Rectángulo_32723" data-name="Rectángulo 32723" width="7.763" height="7.763" transform="translate(20.903 40.756)" fill="#c1ee92"/>
  <path id="Trazado_148301" data-name="Trazado 148301" d="M10,46.413V57.572A2.426,2.426,0,0,0,12.426,60H23.585a2.426,2.426,0,0,0,2.426-2.426V46.413a2.426,2.426,0,0,0-2.426-2.426H12.426A2.426,2.426,0,0,0,10,46.413Z" transform="translate(-8.787 -38.651)" fill="#4dd0e1"/>
  <path id="Trazado_148302" data-name="Trazado 148302" d="M26.011,75l-7.217,7.217-3.548-3.548L10,83.915v.908a2.426,2.426,0,0,0,2.426,2.426H23.585a2.426,2.426,0,0,0,2.426-2.426Z" transform="translate(-8.787 -65.903)" fill="#26a69a"/>
  <path id="Trazado_148303" data-name="Trazado 148303" d="M354,302.426v13.1a2.426,2.426,0,0,0,2.426,2.426h13.1a2.426,2.426,0,0,0,2.426-2.426v-13.1A2.426,2.426,0,0,0,369.526,300h-13.1A2.426,2.426,0,0,0,354,302.426Z" transform="translate(-311.061 -263.611)" fill="#ffa726"/>
  <path id="Trazado_148304" data-name="Trazado 148304" d="M403.608,349.571l4.258-2.455a1.424,1.424,0,0,0,0-2.468l-4.258-2.456a1.424,1.424,0,0,0-2.136,1.234v4.911A1.424,1.424,0,0,0,403.608,349.571Z" transform="translate(-352.775 -300.516)" fill="#fff"/>
  <path id="Trazado_148305" data-name="Trazado 148305" d="M357.543,56.426a1.213,1.213,0,1,0-.858-.355A1.222,1.222,0,0,0,357.543,56.426Z" transform="translate(-313.108 -47.45)"/>
  <path id="Trazado_148306" data-name="Trazado 148306" d="M284.558,103.213A1.213,1.213,0,0,0,283.345,102h-7.763a1.213,1.213,0,0,0-1.213,1.213v7.763a1.213,1.213,0,0,0,1.213,1.213h7.763a1.213,1.213,0,0,0,1.213-1.213Zm-2.426,6.55h-5.337v-5.337h5.337Z" transform="translate(-241.089 -89.628)"/>
  <path id="Trazado_148307" data-name="Trazado 148307" d="M284.558,222.976v-7.763A1.213,1.213,0,0,0,283.345,214h-7.763a1.213,1.213,0,0,0-1.213,1.213v7.763a1.213,1.213,0,0,0,1.213,1.213h7.763A1.213,1.213,0,0,0,284.558,222.976Zm-2.426-1.213h-5.337v-5.337h5.337Z" transform="translate(-241.089 -188.042)"/>
  <path id="Trazado_148308" data-name="Trazado 148308" d="M275.582,326a1.213,1.213,0,0,0-1.213,1.213v7.763a1.213,1.213,0,0,0,2.426,0v-6.55h2.669a1.213,1.213,0,0,0,0-2.426Z" transform="translate(-241.089 -286.457)"/>
  <path id="Trazado_148309" data-name="Trazado 148309" d="M172.522,103.213a1.213,1.213,0,1,0-2.426,0v6.55h-6.55a1.213,1.213,0,0,0,0,2.426h7.763a1.213,1.213,0,0,0,1.213-1.213Z" transform="translate(-142.642 -89.628)"/>
  <path id="Trazado_148310" data-name="Trazado 148310" d="M172.522,215.213A1.213,1.213,0,0,0,171.309,214h-7.763a1.213,1.213,0,0,0-1.213,1.213v7.763a1.213,1.213,0,0,0,1.213,1.213h7.763a1.213,1.213,0,0,0,1.213-1.213Zm-2.426,6.55h-5.337v-5.337H170.1Z" transform="translate(-142.642 -188.042)"/>
  <path id="Trazado_148311" data-name="Trazado 148311" d="M171.309,326h-7.763a1.213,1.213,0,0,0-1.213,1.213v7.763a1.213,1.213,0,0,0,1.213,1.213h7.763a1.213,1.213,0,0,0,1.213-1.213v-7.763A1.213,1.213,0,0,0,171.309,326Zm-1.213,7.763h-5.337v-5.337H170.1Z" transform="translate(-142.642 -286.457)"/>
  <path id="Trazado_148312" data-name="Trazado 148312" d="M246.085,466.625a1.212,1.212,0,1,0,.857-.355A1.22,1.22,0,0,0,246.085,466.625Z" transform="translate(-215.923 -409.712)"/>
  <path id="Trazado_148313" data-name="Trazado 148313" d="M18.437,18.921V8.976H38.815a1.213,1.213,0,1,0,0-2.426H18.229A3.645,3.645,0,0,0,14.8,4.123H13.343V3.639a1.214,1.214,0,0,1,1.213-1.213H47.548a1.214,1.214,0,0,1,1.213,1.213V31.052a1.213,1.213,0,1,0,2.426,0V3.639A3.643,3.643,0,0,0,47.548,0H14.556a3.643,3.643,0,0,0-3.639,3.639v.484H3.639A3.643,3.643,0,0,0,0,7.761V18.921A3.643,3.643,0,0,0,3.639,22.56H14.8A3.643,3.643,0,0,0,18.437,18.921ZM3.639,6.549H14.8a1.214,1.214,0,0,1,1.213,1.213v.833l-6,6-2.69-2.69a1.213,1.213,0,0,0-1.716,0L2.426,15.084V7.761A1.214,1.214,0,0,1,3.639,6.549ZM2.426,18.921V18.48a1.217,1.217,0,0,0,.191-.156l3.843-3.843,2.69,2.69a1.213,1.213,0,0,0,1.716,0l5.146-5.146v6.9A1.214,1.214,0,0,1,14.8,20.134H3.639A1.214,1.214,0,0,1,2.426,18.921Z"/>
  <path id="Trazado_148314" data-name="Trazado 148314" d="M137.554,223.219h-13.1a3.643,3.643,0,0,0-3.639,3.639v13.1a3.643,3.643,0,0,0,3.639,3.639h3.4v2.911a1.214,1.214,0,0,1-1.213,1.213H93.645a1.214,1.214,0,0,1-1.213-1.213V243.6h25.635a1.213,1.213,0,1,0,0-2.426H92.432V215.213a1.213,1.213,0,0,0-2.426,0v31.295a3.643,3.643,0,0,0,3.639,3.639h32.992a3.643,3.643,0,0,0,3.639-3.639V243.6h7.279a3.643,3.643,0,0,0,3.639-3.639v-13.1A3.643,3.643,0,0,0,137.554,223.219Zm1.213,16.739a1.214,1.214,0,0,1-1.213,1.213h-13.1a1.214,1.214,0,0,1-1.213-1.213v-13.1a1.214,1.214,0,0,1,1.213-1.213h13.1a1.214,1.214,0,0,1,1.213,1.213Z" transform="translate(-79.088 -188.042)"/>
  <path id="Trazado_148315" data-name="Trazado 148315" d="M449.276,114.087a1.213,1.213,0,0,0,1.213-1.213v-9.661a1.213,1.213,0,1,0-2.426,0v9.661A1.213,1.213,0,0,0,449.276,114.087Z" transform="translate(-393.714 -89.628)"/>
  <path id="Trazado_148316" data-name="Trazado 148316" d="M449.273,222.136a1.214,1.214,0,1,0-.857-.355A1.222,1.222,0,0,0,449.273,222.136Z" transform="translate(-393.711 -193.06)"/>
  <path id="Trazado_148317" data-name="Trazado 148317" d="M45.213,230.982A1.213,1.213,0,0,0,44,232.195v8.353a1.213,1.213,0,1,0,2.426,0v-8.353A1.213,1.213,0,0,0,45.213,230.982Z" transform="translate(-38.663 -202.964)"/>
  <path id="Trazado_148318" data-name="Trazado 148318" d="M399.687,334.8l-4.258-2.456a2.637,2.637,0,0,0-3.955,2.284v4.91a2.631,2.631,0,0,0,3.954,2.285l4.258-2.454a2.637,2.637,0,0,0,0-4.569Zm-1.212,2.467-4.258,2.454a.211.211,0,0,1-.317-.183v-4.91a.2.2,0,0,1,.106-.183.2.2,0,0,1,.211,0l4.258,2.456a.211.211,0,0,1,0,.366Z" transform="translate(-343.989 -291.714)"/>
</svg>
