<svg xmlns="http://www.w3.org/2000/svg" width="120" height="111.996" viewBox="0 0 120 111.996">
  <g id="filled_outline" data-name="filled outline" transform="translate(-16 -32)">
    <g id="Grupo_85178" data-name="Grupo 85178" transform="translate(38 32)">
      <path id="Trazado_147483" data-name="Trazado 147483" d="M146,40a2,2,0,0,1-2-2V34a2,2,0,0,1,4,0v4A2,2,0,0,1,146,40Z" transform="translate(-134 -32)" fill="#faa6b2"/>
      <path id="Trazado_147484" data-name="Trazado 147484" d="M120.544,50.546a1.994,1.994,0,0,1-1.414-.586L116.3,47.132A2,2,0,1,1,119.13,44.3l2.828,2.828a2,2,0,0,1-1.415,3.414Z" transform="translate(-112.787 -40.788)" fill="#faa6b2"/>
      <path id="Trazado_147485" data-name="Trazado 147485" d="M110,76h-4a2,2,0,0,1,0-4h4a2,2,0,0,1,0,4Z" transform="translate(-104 -62)" fill="#faa6b2"/>
      <path id="Trazado_147486" data-name="Trazado 147486" d="M117.716,95.8a2,2,0,0,1-1.414-3.414l2.828-2.828a2,2,0,0,1,2.829,2.829l-2.829,2.828a1.993,1.993,0,0,1-1.414.586Z" transform="translate(-112.787 -74.727)" fill="#faa6b2"/>
      <path id="Trazado_147487" data-name="Trazado 147487" d="M146,104a2,2,0,0,1-2-2V98a2,2,0,0,1,4,0v4A2,2,0,0,1,146,104Z" transform="translate(-134 -80)" fill="#faa6b2"/>
      <path id="Trazado_147488" data-name="Trazado 147488" d="M165.8,95.8a1.994,1.994,0,0,1-1.414-.586l-2.828-2.828a2,2,0,0,1,2.828-2.829l2.828,2.828A2,2,0,0,1,165.8,95.8Z" transform="translate(-146.726 -74.727)" fill="#faa6b2"/>
      <path id="Trazado_147489" data-name="Trazado 147489" d="M174,76h-4a2,2,0,0,1,0-4h4a2,2,0,0,1,0,4Z" transform="translate(-152 -62)" fill="#faa6b2"/>
      <path id="Trazado_147490" data-name="Trazado 147490" d="M162.969,50.546a2,2,0,0,1-1.414-3.414l2.828-2.828a2,2,0,0,1,2.829,2.828l-2.828,2.828a1.994,1.994,0,0,1-1.414.586Z" transform="translate(-146.726 -40.788)" fill="#faa6b2"/>
    </g>
    <path id="Trazado_147491" data-name="Trazado 147491" d="M410,296a2,2,0,0,1-2-2v-4a2,2,0,0,1,4,0v4A2,2,0,0,1,410,296Z" transform="translate(-294 -192)" fill="#a6deff"/>
    <path id="Trazado_147492" data-name="Trazado 147492" d="M384.546,306.544a2,2,0,0,1-1.414-.585L380.3,303.13a2,2,0,0,1,2.828-2.828l2.828,2.828a2,2,0,0,1-1.414,3.414Z" transform="translate(-272.788 -200.787)" fill="#a6deff"/>
    <path id="Trazado_147493" data-name="Trazado 147493" d="M374,332h-4a2,2,0,0,1,0-4h4a2,2,0,0,1,0,4Z" transform="translate(-264 -222)" fill="#a6deff"/>
    <path id="Trazado_147494" data-name="Trazado 147494" d="M381.718,351.8a2,2,0,0,1-1.414-3.414l2.828-2.828a2,2,0,0,1,2.828,2.828l-2.828,2.828a1.994,1.994,0,0,1-1.414.586Z" transform="translate(-272.788 -234.727)" fill="#a6deff"/>
    <path id="Trazado_147495" data-name="Trazado 147495" d="M410,360a2,2,0,0,1-2-2v-4a2,2,0,0,1,4,0v4A2,2,0,0,1,410,360Z" transform="translate(-294 -240)" fill="#a6deff"/>
    <path id="Trazado_147496" data-name="Trazado 147496" d="M429.8,351.8a1.994,1.994,0,0,1-1.414-.586l-2.828-2.828a2,2,0,1,1,2.829-2.829l2.828,2.828A2,2,0,0,1,429.8,351.8Z" transform="translate(-306.728 -234.726)" fill="#a6deff"/>
    <path id="Trazado_147497" data-name="Trazado 147497" d="M438,332h-4a2,2,0,0,1,0-4h4a2,2,0,0,1,0,4Z" transform="translate(-312 -222)" fill="#a6deff"/>
    <path id="Trazado_147498" data-name="Trazado 147498" d="M426.97,306.544a2,2,0,0,1-1.414-3.414l2.828-2.828a2,2,0,1,1,2.828,2.828l-2.828,2.828A2,2,0,0,1,426.97,306.544Z" transform="translate(-306.727 -200.787)" fill="#a6deff"/>
    <path id="Trazado_147499" data-name="Trazado 147499" d="M106,280a2,2,0,0,1-2-2v-4a2,2,0,0,1,4,0v4A2,2,0,0,1,106,280Z" transform="translate(-66 -180)" fill="#aac16b"/>
    <path id="Trazado_147500" data-name="Trazado 147500" d="M80.544,290.546a1.994,1.994,0,0,1-1.414-.586L76.3,287.132A2,2,0,0,1,79.13,284.3l2.828,2.828a2,2,0,0,1-1.414,3.414Z" transform="translate(-44.787 -188.788)" fill="#aac16b"/>
    <path id="Trazado_147501" data-name="Trazado 147501" d="M70,316H66a2,2,0,0,1,0-4h4a2,2,0,0,1,0,4Z" transform="translate(-36 -210)" fill="#aac16b"/>
    <path id="Trazado_147502" data-name="Trazado 147502" d="M77.716,335.8a2,2,0,0,1-1.414-3.414l2.828-2.828a2,2,0,1,1,2.829,2.829l-2.828,2.828a1.994,1.994,0,0,1-1.414.586Z" transform="translate(-44.787 -222.727)" fill="#aac16b"/>
    <path id="Trazado_147503" data-name="Trazado 147503" d="M106,344a2,2,0,0,1-2-2v-4a2,2,0,0,1,4,0v4A2,2,0,0,1,106,344Z" transform="translate(-66 -228)" fill="#aac16b"/>
    <path id="Trazado_147504" data-name="Trazado 147504" d="M125.8,335.8a1.994,1.994,0,0,1-1.414-.586l-2.828-2.828a2,2,0,0,1,2.828-2.829l2.828,2.828A2,2,0,0,1,125.8,335.8Z" transform="translate(-78.726 -222.727)" fill="#aac16b"/>
    <path id="Trazado_147505" data-name="Trazado 147505" d="M134,316h-4a2,2,0,0,1,0-4h4a2,2,0,0,1,0,4Z" transform="translate(-84 -210)" fill="#aac16b"/>
    <path id="Trazado_147506" data-name="Trazado 147506" d="M122.969,290.546a2,2,0,0,1-1.414-3.414l2.828-2.828a2,2,0,0,1,2.828,2.829l-2.828,2.828a1.994,1.994,0,0,1-1.414.586Z" transform="translate(-78.726 -188.788)" fill="#aac16b"/>
    <path id="Trazado_147507" data-name="Trazado 147507" d="M330,80.609a2,2,0,0,1-2-2v-4a2,2,0,0,1,4,0v4A2,2,0,0,1,330,80.609Z" transform="translate(-234 -30.457)" fill="#ffc864"/>
    <path id="Trazado_147508" data-name="Trazado 147508" d="M304.546,91.152a2,2,0,0,1-1.414-.586L300.3,87.738a2,2,0,0,1,2.828-2.828l2.828,2.828a2,2,0,0,1-1.414,3.415Z" transform="translate(-212.788 -39.243)" fill="#ffc864"/>
    <path id="Trazado_147509" data-name="Trazado 147509" d="M294,116.607h-4a2,2,0,0,1,0-4h4a2,2,0,0,1,0,4Z" transform="translate(-204 -60.455)" fill="#ffc864"/>
    <path id="Trazado_147510" data-name="Trazado 147510" d="M349.8,136.406a1.994,1.994,0,0,1-1.414-.586l-2.828-2.829a2,2,0,1,1,2.829-2.828l2.828,2.829a2,2,0,0,1-1.414,3.414Z" transform="translate(-246.728 -73.183)" fill="#ffc864"/>
    <path id="Trazado_147511" data-name="Trazado 147511" d="M358,116.607h-4a2,2,0,0,1,0-4h4a2,2,0,0,1,0,4Z" transform="translate(-252 -60.455)" fill="#ffc864"/>
    <path id="Trazado_147512" data-name="Trazado 147512" d="M346.969,91.152a2,2,0,0,1-1.414-3.414l2.829-2.828a2,2,0,1,1,2.828,2.828l-2.828,2.83A2,2,0,0,1,346.969,91.152Z" transform="translate(-246.726 -39.243)" fill="#ffc864"/>
    <path id="Trazado_147513" data-name="Trazado 147513" d="M192.164,199.489l7.461-2.887-19.486-50.362a10.562,10.562,0,0,0-3.764,12.443Z" transform="translate(-119.747 -85.681)" fill="#cdccc8"/>
    <path id="Trazado_147514" data-name="Trazado 147514" d="M241.668,350.579l7.939,20.518a12,12,0,1,0,3.544-13.578l-.414-.5-3.609-9.325Zm15.4,17.631a4,4,0,1,1,5.175,2.287,4,4,0,0,1-5.175-2.287Z" transform="translate(-169.251 -236.77)" fill="#ffa726"/>
    <path id="Trazado_147515" data-name="Trazado 147515" d="M154.567,370.493a4,4,0,1,1,5.175-2.287A4,4,0,0,1,154.567,370.493Zm13.113-22.8-3.608,9.325-.414.5a12,12,0,1,0,3.544,13.578l7.939-20.518Z" transform="translate(-96.007 -236.766)" fill="#ffca28"/>
    <path id="Trazado_147516" data-name="Trazado 147516" d="M24,184.609H140v16H24Z" transform="translate(-6 -114.457)" fill="#26a69a"/>
    <path id="Trazado_147518" data-name="Trazado 147518" d="M246.151,199.489,238.69,196.6l19.486-50.362a10.562,10.562,0,0,1,3.764,12.443Z" transform="translate(-167.018 -85.681)" fill="#eae9e4"/>
    <path id="Trazado_147519" data-name="Trazado 147519" d="M298.024,335.38a2,2,0,0,1-1.865-2.722l1.071-2.769a2,2,0,1,1,3.73,1.444L299.89,334.1A2,2,0,0,1,298.024,335.38Z" transform="translate(-210.019 -222.458)" fill="#a6deff"/>
    <path id="Trazado_147520" data-name="Trazado 147520" d="M311.594,284.61a2,2,0,0,1-1.865-2.722l3.1-8a2,2,0,1,1,3.73,1.443l-3.1,8A2,2,0,0,1,311.594,284.61Z" transform="translate(-220.196 -180.457)" fill="#a6deff"/>
    <path id="Trazado_147521" data-name="Trazado 147521" d="M148,34a2,2,0,0,0-4,0v4a2,2,0,0,0,4,0Z" transform="translate(-96)"/>
    <path id="Trazado_147522" data-name="Trazado 147522" d="M121.959,47.132,119.13,44.3a2,2,0,1,0-2.829,2.828l2.828,2.828a2,2,0,0,0,2.829-2.828Z" transform="translate(-74.787 -8.788)"/>
    <path id="Trazado_147523" data-name="Trazado 147523" d="M112,74a2,2,0,0,0-2-2h-4a2,2,0,0,0,0,4h4A2,2,0,0,0,112,74Z" transform="translate(-66 -30)"/>
    <path id="Trazado_147524" data-name="Trazado 147524" d="M117.716,95.8a1.994,1.994,0,0,0,1.414-.586l2.829-2.828a2,2,0,0,0-2.829-2.829L116.3,92.384a2,2,0,0,0,1.414,3.414Z" transform="translate(-74.787 -42.727)"/>
    <path id="Trazado_147525" data-name="Trazado 147525" d="M146,104a2,2,0,0,0,2-2V98a2,2,0,0,0-4,0v4A2,2,0,0,0,146,104Z" transform="translate(-96 -48)"/>
    <path id="Trazado_147526" data-name="Trazado 147526" d="M161.554,92.384l2.828,2.828a2,2,0,0,0,2.829-2.828l-2.828-2.829a2,2,0,0,0-2.828,2.829Z" transform="translate(-108.726 -42.727)"/>
    <path id="Trazado_147527" data-name="Trazado 147527" d="M176,74a2,2,0,0,0-2-2h-4a2,2,0,0,0,0,4h4A2,2,0,0,0,176,74Z" transform="translate(-114 -30)"/>
    <path id="Trazado_147528" data-name="Trazado 147528" d="M162.969,50.546a1.994,1.994,0,0,0,1.414-.586l2.828-2.828a2,2,0,1,0-2.829-2.828l-2.828,2.828a2,2,0,0,0,1.414,3.414Z" transform="translate(-108.726 -8.788)"/>
    <path id="Trazado_147529" data-name="Trazado 147529" d="M410,296a2,2,0,0,0,2-2v-4a2,2,0,0,0-4,0v4A2,2,0,0,0,410,296Z" transform="translate(-294 -192)"/>
    <path id="Trazado_147530" data-name="Trazado 147530" d="M385.96,303.13l-2.828-2.828a2,2,0,0,0-2.828,2.829l2.828,2.828a2,2,0,1,0,2.828-2.829Z" transform="translate(-272.788 -200.787)"/>
    <path id="Trazado_147531" data-name="Trazado 147531" d="M368,330a2,2,0,0,0,2,2h4a2,2,0,0,0,0-4h-4A2,2,0,0,0,368,330Z" transform="translate(-264 -222)"/>
    <path id="Trazado_147532" data-name="Trazado 147532" d="M385.96,348.383a2,2,0,0,0-2.828-2.828l-2.828,2.828a2,2,0,0,0,2.828,2.829Z" transform="translate(-272.788 -234.727)"/>
    <path id="Trazado_147533" data-name="Trazado 147533" d="M408,358a2,2,0,0,0,4,0v-4a2,2,0,0,0-4,0Z" transform="translate(-294 -240)"/>
    <path id="Trazado_147534" data-name="Trazado 147534" d="M425.556,348.383l2.828,2.828a2,2,0,0,0,2.828-2.828l-2.828-2.828a2,2,0,1,0-2.829,2.829Z" transform="translate(-306.728 -234.726)"/>
    <path id="Trazado_147535" data-name="Trazado 147535" d="M438,328h-4a2,2,0,0,0,0,4h4a2,2,0,0,0,0-4Z" transform="translate(-312 -222)"/>
    <path id="Trazado_147536" data-name="Trazado 147536" d="M426.97,306.544a2,2,0,0,0,1.414-.586l2.828-2.828a2,2,0,0,0-2.828-2.828l-2.829,2.828a2,2,0,0,0,1.414,3.414Z" transform="translate(-306.727 -200.787)"/>
    <path id="Trazado_147537" data-name="Trazado 147537" d="M106,280a2,2,0,0,0,2-2v-4a2,2,0,0,0-4,0v4A2,2,0,0,0,106,280Z" transform="translate(-66 -180)"/>
    <path id="Trazado_147538" data-name="Trazado 147538" d="M81.959,287.132,79.13,284.3a2,2,0,1,0-2.829,2.828l2.828,2.828a2,2,0,0,0,2.829-2.828Z" transform="translate(-44.787 -188.788)"/>
    <path id="Trazado_147539" data-name="Trazado 147539" d="M64,314a2,2,0,0,0,2,2h4a2,2,0,0,0,0-4H66A2,2,0,0,0,64,314Z" transform="translate(-36 -210)"/>
    <path id="Trazado_147540" data-name="Trazado 147540" d="M79.13,329.555,76.3,332.384a2,2,0,0,0,2.829,2.828l2.828-2.828a2,2,0,1,0-2.829-2.829Z" transform="translate(-44.787 -222.727)"/>
    <path id="Trazado_147541" data-name="Trazado 147541" d="M104,342a2,2,0,0,0,4,0v-4a2,2,0,0,0-4,0Z" transform="translate(-66 -228)"/>
    <path id="Trazado_147542" data-name="Trazado 147542" d="M121.554,332.384l2.828,2.828a2,2,0,1,0,2.828-2.828l-2.828-2.828a2,2,0,1,0-2.829,2.829Z" transform="translate(-78.726 -222.727)"/>
    <path id="Trazado_147543" data-name="Trazado 147543" d="M128,314a2,2,0,0,0,2,2h4a2,2,0,0,0,0-4h-4A2,2,0,0,0,128,314Z" transform="translate(-84 -210)"/>
    <path id="Trazado_147544" data-name="Trazado 147544" d="M124.383,284.3l-2.828,2.828a2,2,0,0,0,2.829,2.828l2.828-2.828a2,2,0,0,0-2.828-2.829Z" transform="translate(-78.727 -188.788)"/>
    <path id="Trazado_147545" data-name="Trazado 147545" d="M328,74.609v4a2,2,0,0,0,4,0v-4a2,2,0,0,0-4,0Z" transform="translate(-234 -30.457)"/>
    <path id="Trazado_147546" data-name="Trazado 147546" d="M305.96,87.738l-2.828-2.828a2,2,0,0,0-2.828,2.828l2.828,2.83a2,2,0,1,0,2.828-2.83Z" transform="translate(-212.788 -39.243)"/>
    <path id="Trazado_147547" data-name="Trazado 147547" d="M294,112.607h-4a2,2,0,0,0,0,4h4a2,2,0,0,0,0-4Z" transform="translate(-204 -60.455)"/>
    <path id="Trazado_147548" data-name="Trazado 147548" d="M348.385,135.82a2,2,0,1,0,2.829-2.828l-2.828-2.828a2,2,0,1,0-2.829,2.828Z" transform="translate(-246.728 -73.183)"/>
    <path id="Trazado_147549" data-name="Trazado 147549" d="M360,114.607a2,2,0,0,0-2-2h-4a2,2,0,1,0,0,4h4A2,2,0,0,0,360,114.607Z" transform="translate(-252 -60.455)"/>
    <path id="Trazado_147550" data-name="Trazado 147550" d="M348.383,90.572l2.828-2.829a2,2,0,0,0-2.828-2.828l-2.829,2.827a2,2,0,0,0,2.829,2.83Z" transform="translate(-246.726 -39.247)"/>
    <path id="Trazado_147551" data-name="Trazado 147551" d="M297.762,411.472a6,6,0,1,0-3.17-3.323A6,6,0,0,0,297.762,411.472Zm1.7-7.353a1.986,1.986,0,1,1-1.113,1.055,2,2,0,0,1,1.113-1.055Z" transform="translate(-208.64 -275.988)"/>
    <path id="Trazado_147552" data-name="Trazado 147552" d="M176.178,400.385a6,6,0,1,0,3.323,3.17A6,6,0,0,0,176.178,400.385Zm-.3,6.317a2,2,0,1,1-1.143-2.587,2,2,0,0,1,1.143,2.587Z" transform="translate(-114.01 -275.986)"/>
    <path id="Trazado_147553" data-name="Trazado 147553" d="M134,147.833H97.594a12.541,12.541,0,0,0-5.283-9.227,2,2,0,0,0-3.018.913l-3.217,8.314h-20.6l-3.217-8.314a2,2,0,0,0-3.018-.913,12.627,12.627,0,0,0-5.272,9.227H18a2,2,0,0,0-2,2v16a2,2,0,0,0,2,2H60.345l9,23.25-2.473,6.392a14,14,0,1,0,6.191,17.253l2.715-7.017,2.715,7.018a14,14,0,1,0,6.191-17.253L82.254,191.2c-.015-.037-.032-.073-.049-.109l9-23.259H134a2,2,0,0,0,2-2v-16A2,2,0,0,0,134,147.833Zm-42.058-4.075a8.55,8.55,0,0,1,1.115,8.2L77.99,190.9l-3.73-1.444Zm-16.167,30.7-2.563-6.625h5.125ZM59.611,143.766l1.575,4.067h-3.2A8.637,8.637,0,0,1,59.611,143.766ZM20,151.833H84.529l-4.643,12H20Zm48.924,16L73.631,180l-2.144,5.543-6.852-17.709Zm.406,45.452a10,10,0,1,1-2.955-11.315,2,2,0,0,0,2.816-.267l3.625-8.514,3.73,1.444ZM82.359,201.7a2,2,0,0,0,2.816.267,10,10,0,1,1-2.953,11.315l-4.3-11.117,2.145-5.543ZM132,163.833H92.753l4.035-10.427a12.68,12.68,0,0,0,.493-1.572H132Z" transform="translate(0 -79.681)"/>
    <path id="Trazado_147554" data-name="Trazado 147554" d="M299.816,328.744a2,2,0,0,0-2.587,1.144l-1.073,2.769a2,2,0,1,0,3.73,1.443l1.072-2.768a2,2,0,0,0-1.142-2.587Z" transform="translate(-210.016 -222.457)"/>
    <path id="Trazado_147555" data-name="Trazado 147555" d="M313.459,283.333l3.1-8a2,2,0,0,0-3.73-1.443l-3.1,8a2,2,0,1,0,3.731,1.443Z" transform="translate(-220.195 -180.458)"/>
  </g>
</svg>
