<svg xmlns="http://www.w3.org/2000/svg" width="110" height="110" viewBox="0 0 110 110">
  <g id="Grupo_86710" data-name="Grupo 86710" transform="translate(-744.992 -1594)">
    <g id="Grupo_86709" data-name="Grupo 86709">
      <g id="innovacion" transform="translate(743.992 1593)">
        <g id="Grupo_85203" data-name="Grupo 85203" transform="translate(2.774 2.774)">
          <g id="Grupo_85191" data-name="Grupo 85191" transform="translate(46.129 95.806)">
            <path id="Trazado_147585" data-name="Trazado 147585" d="M42.194,56v3.548a7.1,7.1,0,1,1-14.194,0V56Z" transform="translate(-28 -56)" fill="#aab2bd"/>
          </g>
          <g id="Grupo_85192" data-name="Grupo 85192" transform="translate(42.581 88.71)">
            <path id="Trazado_147586" data-name="Trazado 147586" d="M43.742,52a3.559,3.559,0,0,1,3.548,3.548A3.574,3.574,0,0,1,43.742,59.1H29.548A3.559,3.559,0,0,1,26,55.548,3.574,3.574,0,0,1,29.548,52Z" transform="translate(-26 -52)" fill="#ccd1d9"/>
          </g>
          <g id="Grupo_85193" data-name="Grupo 85193" transform="translate(39.032 81.613)">
            <path id="Trazado_147587" data-name="Trazado 147587" d="M45.29,55.1H27.548A3.559,3.559,0,0,1,24,51.548,3.574,3.574,0,0,1,27.548,48h21.29a3.559,3.559,0,0,1,3.548,3.548A3.574,3.574,0,0,1,48.839,55.1Z" transform="translate(-24 -48)" fill="#ccd1d9"/>
          </g>
          <g id="Grupo_85194" data-name="Grupo 85194" transform="translate(23.065 15.967)">
            <path id="Trazado_147588" data-name="Trazado 147588" d="M75.323,41.162A30.155,30.155,0,0,1,59.355,67.775v1.774A3.574,3.574,0,0,1,62.9,73.1a3.559,3.559,0,0,1-3.548,3.548H30.968a3.548,3.548,0,0,1,0-7.1V67.775A30.346,30.346,0,0,1,18.548,55.355,29.9,29.9,0,0,1,15,41.162,30.08,30.08,0,0,1,41.684,11.2,30.186,30.186,0,0,1,75.323,41.162Z" transform="translate(-15 -11)" fill="#ffedb7"/>
          </g>
          <g id="Grupo_85195" data-name="Grupo 85195" transform="translate(31.935 24.839)">
            <path id="Trazado_147589" data-name="Trazado 147589" d="M62.581,31.968V42.613l-2.839,1.011a20.541,20.541,0,0,1-.94,2.235l1.313,2.715-7.54,7.54L49.86,54.8a20.539,20.539,0,0,1-2.235.94l-1.011,2.839H35.968l-1.011-2.839a20.541,20.541,0,0,1-2.235-.94l-2.715,1.313-7.54-7.54,1.313-2.715a20.541,20.541,0,0,1-.94-2.235L20,42.613V31.968l2.839-1.011a20.54,20.54,0,0,1,.94-2.235l-1.313-2.715,7.54-7.54,2.715,1.313a20.541,20.541,0,0,1,2.235-.94L35.968,16H46.613l1.011,2.839a20.541,20.541,0,0,1,2.235.94l2.715-1.313,7.54,7.54L58.8,28.721a20.538,20.538,0,0,1,.94,2.235ZM53.71,37.29A12.419,12.419,0,1,0,41.29,49.71,12.41,12.41,0,0,0,53.71,37.29Z" transform="translate(-20 -16)" fill="#ffa726"/>
          </g>
          <g id="Grupo_85196" data-name="Grupo 85196" transform="translate(40.806 33.71)">
            <path id="Trazado_147590" data-name="Trazado 147590" d="M37.419,21A12.419,12.419,0,1,1,25,33.419,12.41,12.41,0,0,1,37.419,21Zm5.323,12.419a5.323,5.323,0,1,0-5.323,5.323A5.315,5.315,0,0,0,42.742,33.419Z" transform="translate(-25 -21)" fill="#ffca28"/>
          </g>
          <g id="Grupo_85197" data-name="Grupo 85197" transform="translate(99.355)">
            <path id="Trazado_147591" data-name="Trazado 147591" d="M65.1,2V23.29H58V2Z" transform="translate(-58 -2)" fill="#039be5"/>
          </g>
          <g id="Grupo_85198" data-name="Grupo 85198" transform="translate(85.161 7.097)">
            <path id="Trazado_147592" data-name="Trazado 147592" d="M57.1,6V20.194H50V6Z" transform="translate(-50 -6)" fill="#4dd0e1"/>
          </g>
          <g id="Grupo_85199" data-name="Grupo 85199" transform="translate(92.258 3.548)">
            <path id="Trazado_147593" data-name="Trazado 147593" d="M61.1,4V21.742H54V4Z" transform="translate(-54 -4)" fill="#1565c0"/>
          </g>
          <g id="Grupo_85200" data-name="Grupo 85200" transform="translate(0 78.065)">
            <path id="Trazado_147594" data-name="Trazado 147594" d="M33.935,56.645V70.839a3.559,3.559,0,0,1-3.548,3.548H5.548A3.559,3.559,0,0,1,2,70.839V56.645A3.559,3.559,0,0,1,5.548,53.1H21.516l2.945-5.89a2.193,2.193,0,0,1,4.152.994v4.9h1.774A3.559,3.559,0,0,1,33.935,56.645Z" transform="translate(-2 -46)" fill="#ffca28"/>
          </g>
          <g id="Grupo_85201" data-name="Grupo 85201">
            <circle id="Elipse_4214" data-name="Elipse 4214" cx="14.194" cy="14.194" r="14.194" fill="#4dd0e1"/>
          </g>
          <g id="Grupo_85202" data-name="Grupo 85202" transform="translate(78.065 78.065)">
            <circle id="Elipse_4215" data-name="Elipse 4215" cx="14.194" cy="14.194" r="14.194" fill="#26a69a"/>
          </g>
        </g>
        <g id="Grupo_85204" data-name="Grupo 85204" transform="translate(1 1)">
          <path id="Trazado_147595" data-name="Trazado 147595" d="M51.8,57.39,49.293,59.9l4.8,4.8L66,52.8l-2.509-2.509L54.1,59.684Z" transform="translate(36.388 37.162)"/>
          <path id="Trazado_147596" data-name="Trazado 147596" d="M19.487,6.293,10.1,15.684,7.8,13.39,5.293,15.9l4.8,4.8L22,8.8Z" transform="translate(2.324 3.098)"/>
          <path id="Trazado_147597" data-name="Trazado 147597" d="M38.194,20A14.194,14.194,0,1,0,52.387,34.194,14.21,14.21,0,0,0,38.194,20Zm0,24.839A10.645,10.645,0,1,1,48.839,34.194,10.656,10.656,0,0,1,38.194,44.839Z" transform="translate(16.806 13.71)"/>
          <path id="Trazado_147598" data-name="Trazado 147598" d="M35.1,24a7.1,7.1,0,1,0,7.1,7.1A7.1,7.1,0,0,0,35.1,24Zm0,10.645A3.548,3.548,0,1,1,38.645,31.1,3.552,3.552,0,0,1,35.1,34.645Z" transform="translate(19.903 16.806)"/>
          <path id="Trazado_147599" data-name="Trazado 147599" d="M61.542,29.508l1.483-3.1-9.3-9.3-3.1,1.483c-.275-.122-.555-.238-.836-.348L48.643,15H35.486l-1.143,3.24q-.42.165-.836.348L30.4,17.1l-9.3,9.3,1.483,3.1c-.122.279-.24.557-.348.836L19,31.486V44.641l3.24,1.144q.165.418.348.836l-1.483,3.1,9.3,9.3,3.1-1.483c.277.122.555.24.836.348l1.143,3.24H48.643l1.143-3.24q.418-.165.836-.348l3.1,1.483,9.3-9.3-1.483-3.1c.122-.279.24-.557.348-.836l3.24-1.143V31.488l-3.24-1.144q-.165-.418-.348-.836Zm.039,12.623L59.109,43l-.277.813a17.458,17.458,0,0,1-.846,2.033l-.38.772,1.134,2.367-5.752,5.752L50.62,53.6l-.774.38a17.107,17.107,0,0,1-2.031.846L47,55.107l-.869,2.473H38l-.871-2.471-.814-.277a17.108,17.108,0,0,1-2.031-.846l-.774-.38L31.139,54.74l-5.752-5.752,1.134-2.367-.38-.772a17.458,17.458,0,0,1-.846-2.033L25.018,43l-2.47-.873V34l2.471-.871.277-.813a17.459,17.459,0,0,1,.846-2.033l.38-.772-1.134-2.367,5.752-5.752,2.369,1.132.774-.38a17.285,17.285,0,0,1,2.033-.846l.813-.279L38,18.548h8.133L47,21.018l.813.279a17.285,17.285,0,0,1,2.033.846l.774.38,2.369-1.132,5.752,5.752-1.134,2.367.38.772a17.46,17.46,0,0,1,.846,2.033l.277.813,2.47.871Z" transform="translate(12.935 9.839)"/>
          <path id="Trazado_147600" data-name="Trazado 147600" d="M5,53H26.29v3.548H5Z" transform="translate(2.097 39.258)"/>
          <path id="Trazado_147601" data-name="Trazado 147601" d="M15,57h3.548v3.548H15Z" transform="translate(9.839 42.355)"/>
          <path id="Trazado_147602" data-name="Trazado 147602" d="M5,57H19.194v3.548H5Z" transform="translate(2.097 42.355)"/>
          <path id="Trazado_147603" data-name="Trazado 147603" d="M88.67,25.839H111V1H100.355V4.548h-7.1V8.1h-7.1V23.33l-5.436,5.434A31.895,31.895,0,0,0,24.311,44.892c-.092.749-.153,1.494-.193,2.237h-3.6a1.776,1.776,0,0,1-1.774-1.774V32.831a15.968,15.968,0,1,0-3.548,0V45.355a5.329,5.329,0,0,0,5.323,5.323h3.619a31.953,31.953,0,0,0,2.441,10.645H18.742a5.329,5.329,0,0,0-5.323,5.323V86.161h-7.1A5.329,5.329,0,0,0,1,91.484v14.194A5.329,5.329,0,0,0,6.323,111H31.161a5.329,5.329,0,0,0,5.323-5.323V91.484a5.329,5.329,0,0,0-5.323-5.323v-3.13a3.967,3.967,0,0,0-7.515-1.774l-2.452,4.9H16.968V66.645a1.775,1.775,0,0,1,1.774-1.774h9.581a31.835,31.835,0,0,0,11,11.263,5.306,5.306,0,0,0,1.1,9.822,5.278,5.278,0,0,0,3.548,7.1,5.275,5.275,0,0,0,3.158,6.976v2.1a8.871,8.871,0,0,0,17.742,0v-2.1a5.275,5.275,0,0,0,3.158-6.976,5.277,5.277,0,0,0,3.548-7.1,5.3,5.3,0,0,0,1.1-9.822,31.888,31.888,0,0,0,15.2-25.456h3.607a1.776,1.776,0,0,1,1.774,1.774V79.169a15.968,15.968,0,1,0,3.548,0V52.452a5.329,5.329,0,0,0-5.323-5.323H87.841a31.928,31.928,0,0,0-5.007-15.455ZM103.9,4.548h3.548V22.29H103.9ZM100.355,8.1V22.29H96.806V8.1ZM89.71,11.645h3.548V22.29H89.71ZM4.548,16.968A12.419,12.419,0,1,1,16.968,29.387,12.434,12.434,0,0,1,4.548,16.968ZM23.387,89.71l3.431-6.863a.434.434,0,0,1,.795.185V89.71h3.548a1.775,1.775,0,0,1,1.774,1.774v14.194a1.775,1.775,0,0,1-1.774,1.774H6.323a1.775,1.775,0,0,1-1.774-1.774V91.484A1.775,1.775,0,0,1,6.323,89.71Zm84.065,5.323A12.419,12.419,0,1,1,95.032,82.613,12.435,12.435,0,0,1,107.452,95.032ZM56,107.452a5.329,5.329,0,0,1-5.323-5.323v-1.774H61.323v1.774A5.329,5.329,0,0,1,56,107.452Zm7.1-10.645H48.9a1.774,1.774,0,1,1,0-3.548H63.1a1.774,1.774,0,1,1,0,3.548Zm3.548-7.1H45.355a1.774,1.774,0,1,1,0-3.548h21.29a1.774,1.774,0,1,1,0,3.548Zm2.711-15.762-.937.5v4.616h1.774a1.774,1.774,0,0,1,0,3.548H41.806a1.774,1.774,0,0,1,0-3.548h1.774V74.448l-.937-.5a28.387,28.387,0,1,1,26.712,0Z" transform="translate(-1 -1)"/>
        </g>
      </g>
    </g>
  </g>
</svg>
