<svg xmlns="http://www.w3.org/2000/svg" width="60" height="55.37" viewBox="0 0 60 55.37">
  <g id="secure" transform="translate(0 -19.73)">
    <g id="Grupo_85281" data-name="Grupo 85281" transform="translate(0.9 20.643)">
      <path id="Trazado_147669" data-name="Trazado 147669" d="M177.5,47.688h-5.766V39.52a6.246,6.246,0,1,0-12.493,0v8.168h-5.766V39.52a12.012,12.012,0,1,1,24.024,0v8.168Z" transform="translate(-136.371 -27.508)" fill="#4dd0e1"/>
      <path id="Trazado_147671" data-name="Trazado 147671" d="M156.832,209.355H130.771a1.865,1.865,0,0,1-1.865-1.865V183.352a1.865,1.865,0,0,1,1.865-1.865h26.061a1.865,1.865,0,0,1,1.865,1.865v24.139A1.865,1.865,0,0,1,156.832,209.355Z" transform="translate(-114.681 -163.421)" fill="#039be5"/>
      <path id="Trazado_147672" data-name="Trazado 147672" d="M232.125,254.044h-5.988a.558.558,0,0,1-.555-.62l.9-8.035a.709.709,0,0,0-.111-.463,3.277,3.277,0,1,1,5.514,0,.711.711,0,0,0-.111.464l.9,8.035A.558.558,0,0,1,232.125,254.044Z" transform="translate(-200.011 -214.96)" fill="#554e56"/>
      <path id="Trazado_147674" data-name="Trazado 147674" d="M63.069,347.686H10.51a2.84,2.84,0,0,1-2.84-2.84v-12.5a2.84,2.84,0,0,1,2.84-2.84H63.069a2.84,2.84,0,0,1,2.84,2.84v12.5A2.84,2.84,0,0,1,63.069,347.686Z" transform="translate(-7.67 -294.075)" fill="#ffca28"/>
    </g>
    <g id="Grupo_85282" data-name="Grupo 85282" transform="translate(0 19.73)">
      <path id="Trazado_147676" data-name="Trazado 147676" d="M48.718,376.867a.88.88,0,0,0,.88-.88v-2.814l2.437,1.407a.88.88,0,1,0,.88-1.524l-2.437-1.407,2.437-1.407a.88.88,0,1,0-.88-1.524L49.6,370.124V367.31a.88.88,0,0,0-1.76,0v2.814L45.4,368.717a.88.88,0,1,0-.88,1.524l2.437,1.407-2.437,1.407a.88.88,0,1,0,.88,1.524l2.437-1.407v2.814a.88.88,0,0,0,.88.88Z" transform="translate(-38.909 -325.752)"/>
      <path id="Trazado_147677" data-name="Trazado 147677" d="M273.648,374.258a.88.88,0,0,0,1.2.322l2.437-1.407v2.814a.88.88,0,1,0,1.76,0v-2.814l2.437,1.407a.88.88,0,1,0,.88-1.524l-2.437-1.407,2.437-1.407a.88.88,0,0,0-.88-1.524l-2.437,1.407V367.31a.88.88,0,0,0-1.76,0v2.814l-2.437-1.407a.88.88,0,0,0-.88,1.524l2.437,1.407-2.437,1.407A.88.88,0,0,0,273.648,374.258Z" transform="translate(-241.437 -325.752)"/>
      <path id="Trazado_147678" data-name="Trazado 147678" d="M158.923,374.26a.88.88,0,0,0,1.2.322l2.437-1.407v2.814a.88.88,0,0,0,1.76,0v-2.814l2.437,1.407a.88.88,0,0,0,.88-1.524l-2.437-1.407,2.437-1.407a.88.88,0,0,0-.88-1.524l-2.437,1.407v-2.814a.88.88,0,0,0-1.76,0v2.814l-2.437-1.407a.88.88,0,0,0-.88,1.524l2.437,1.407-2.437,1.407A.88.88,0,0,0,158.923,374.26Z" transform="translate(-140.172 -325.754)"/>
      <path id="Trazado_147679" data-name="Trazado 147679" d="M388.372,374.26a.88.88,0,0,0,1.2.322l2.437-1.407v2.814a.88.88,0,1,0,1.76,0v-2.814l2.437,1.407a.88.88,0,1,0,.88-1.524l-2.437-1.407,2.437-1.407a.88.88,0,1,0-.88-1.524l-2.437,1.407v-2.814a.88.88,0,1,0-1.76,0v2.814l-2.437-1.407a.88.88,0,0,0-.88,1.524l2.437,1.407-2.437,1.407A.88.88,0,0,0,388.372,374.26Z" transform="translate(-342.701 -325.754)"/>
      <path id="Trazado_147680" data-name="Trazado 147680" d="M56.279,55.164h-10.5V46.742a.88.88,0,0,0-1.76,0v8.422H34L33.527,51a4.157,4.157,0,1,0-7.055,0L26,55.163H15.985V40.541a.986.986,0,0,1,.984-.984H43.031a.986.986,0,0,1,.984.984v2.094a.88.88,0,0,0,1.76,0V40.541A2.747,2.747,0,0,0,43.031,37.8h-.138V32.622a12.892,12.892,0,1,0-25.784,0V37.8H16.97a2.747,2.747,0,0,0-2.744,2.744V55.164H3.721A3.725,3.725,0,0,0,0,58.884v12.5A3.725,3.725,0,0,0,3.721,75.1H9.809a.88.88,0,1,0,0-1.76H3.721A1.963,1.963,0,0,1,1.76,71.38v-12.5a1.963,1.963,0,0,1,1.961-1.961H56.279a1.963,1.963,0,0,1,1.961,1.961v12.5a1.963,1.963,0,0,1-1.961,1.961H13.915a.88.88,0,1,0,0,1.76H56.279A3.725,3.725,0,0,0,60,71.38v-12.5a3.725,3.725,0,0,0-3.721-3.721ZM35.367,37.8H24.633V32.622a5.367,5.367,0,1,1,10.733,0Zm-16.5-5.174a11.132,11.132,0,1,1,22.264,0V37.8H37.127V32.622a7.127,7.127,0,0,0-14.253,0V37.8H18.868ZM27.983,50.1a2.387,2.387,0,0,1-.376-1.443,2.422,2.422,0,0,1,2.237-2.245A2.4,2.4,0,0,1,32.017,50.1a1.605,1.605,0,0,0-.246,1.04l.453,4.026H27.776l.453-4.03a1.592,1.592,0,0,0-.246-1.034Z" transform="translate(0 -19.73)"/>
    </g>
  </g>
</svg>
