<svg xmlns="http://www.w3.org/2000/svg" width="120" height="76.419" viewBox="0 0 120 76.419">
  <g id="comunidad" transform="translate(-2.145 -44.215)">
    <g id="Grupo_85180" data-name="Grupo 85180" transform="translate(4.488 46.558)">
      <path id="Trazado_147559" data-name="Trazado 147559" d="M237.7,209.253a9.02,9.02,0,1,0-18.039,0v4.51a9.02,9.02,0,0,0,18.04,0v-4.51Z" transform="translate(-171.024 -200.233)" fill="#bb6b57" fill-rule="evenodd"/>
      <path id="Trazado_147560" data-name="Trazado 147560" d="M213.288,283.626a8.987,8.987,0,0,1-13.412,0A15.835,15.835,0,0,0,190.8,297.9v28.005h31.569V297.9A15.834,15.834,0,0,0,213.288,283.626Z" transform="translate(-148.925 -264.08)" fill="#039be5" fill-rule="evenodd"/>
      <path id="Trazado_147561" data-name="Trazado 147561" d="M118.6,209.253a9.02,9.02,0,1,0-18.039,0v4.51a9.02,9.02,0,0,0,18.04,0v-4.51Z" transform="translate(-79.837 -200.233)" fill="#cc9081" fill-rule="evenodd"/>
      <path id="Trazado_147562" data-name="Trazado 147562" d="M94.186,283.626a8.987,8.987,0,0,1-13.412,0A15.835,15.835,0,0,0,71.7,297.9v28.005h31.569V297.9a15.834,15.834,0,0,0-9.078-14.279Z" transform="translate(-57.738 -264.08)" fill="#4dd0e1" fill-rule="evenodd"/>
      <path id="Trazado_147563" data-name="Trazado 147563" d="M356.8,209.253a9.02,9.02,0,1,0-18.039,0v4.51a9.02,9.02,0,0,0,18.04,0v-4.51Z" transform="translate(-262.212 -200.233)" fill="#cc9081" fill-rule="evenodd"/>
      <path id="Trazado_147564" data-name="Trazado 147564" d="M332.389,283.626a8.987,8.987,0,0,1-13.412,0A15.835,15.835,0,0,0,309.9,297.9v28.005h31.569V297.9A15.834,15.834,0,0,0,332.389,283.626Z" transform="translate(-240.112 -264.08)" fill="#1565c0" fill-rule="evenodd"/>
      <path id="Trazado_147566" data-name="Trazado 147566" d="M59.048,346.786a9.02,9.02,0,0,0-18.039,0v4.51a9.02,9.02,0,0,0,18.04,0v-4.51Z" transform="translate(-34.244 -305.532)" fill="#bb6b57" fill-rule="evenodd"/>
      <path id="Trazado_147567" data-name="Trazado 147567" d="M34.635,421.158a8.987,8.987,0,0,1-13.412,0,15.835,15.835,0,0,0-9.079,14.279v5.674H43.713v-5.674A15.834,15.834,0,0,0,34.635,421.158Z" transform="translate(-12.144 -369.379)" fill="#26a69a" fill-rule="evenodd"/>
      <path id="Trazado_147568" data-name="Trazado 147568" d="M178.149,346.786a9.02,9.02,0,0,0-18.039,0v4.51a9.02,9.02,0,0,0,18.039,0Z" transform="translate(-125.431 -305.532)" fill="#e5ae8c" fill-rule="evenodd"/>
      <path id="Trazado_147569" data-name="Trazado 147569" d="M153.738,421.158a8.987,8.987,0,0,1-13.412,0,15.835,15.835,0,0,0-9.079,14.279v5.674h31.569v-5.674A15.835,15.835,0,0,0,153.738,421.158Z" transform="translate(-103.332 -369.379)" fill="#ffca28" fill-rule="evenodd"/>
      <path id="Trazado_147570" data-name="Trazado 147570" d="M297.251,346.786a9.02,9.02,0,1,0-18.039,0v4.51a9.02,9.02,0,0,0,18.04,0v-4.51Z" transform="translate(-216.618 -305.532)" fill="#cc9081" fill-rule="evenodd"/>
      <path id="Trazado_147571" data-name="Trazado 147571" d="M272.839,421.158a8.987,8.987,0,0,1-13.412,0,15.835,15.835,0,0,0-9.079,14.279v5.674h31.569v-5.674a15.834,15.834,0,0,0-9.078-14.279Z" transform="translate(-194.519 -369.379)" fill="#ffa726" fill-rule="evenodd"/>
      <path id="Trazado_147572" data-name="Trazado 147572" d="M416.353,346.786a9.02,9.02,0,0,0-18.039,0v4.51a9.02,9.02,0,0,0,18.039,0Z" transform="translate(-307.806 -305.532)" fill="#e5ae8c" fill-rule="evenodd"/>
      <path id="Trazado_147573" data-name="Trazado 147573" d="M391.941,421.158a8.987,8.987,0,0,1-13.412,0,15.835,15.835,0,0,0-9.079,14.279v5.674h31.569v-5.674A15.834,15.834,0,0,0,391.941,421.158Z" transform="translate(-285.707 -369.379)" fill="#ffedb7" fill-rule="evenodd"/>
    </g>
    <g id="Grupo_85181" data-name="Grupo 85181" transform="translate(2.145 44.215)">
      <path id="Trazado_147574" data-name="Trazado 147574" d="M114.094,243.583a11.289,11.289,0,0,0,1.286-5.242v-4.51a11.383,11.383,0,0,0-7.488-10.682,18.043,18.043,0,0,0-7.755-11.8,11.291,11.291,0,0,0,1.285-5.24V201.6a11.363,11.363,0,1,0-22.727,0v4.51a11.29,11.29,0,0,0,1.286,5.241,18.2,18.2,0,0,0-3.887,3.5,18.148,18.148,0,0,0-3.874-3.5,11.29,11.29,0,0,0,1.287-5.244V201.6a11.363,11.363,0,0,0-22.727,0v4.51a11.287,11.287,0,0,0,1.288,5.244,18.149,18.149,0,0,0-3.892,3.523,18.332,18.332,0,0,0-3.871-3.521,11.29,11.29,0,0,0,1.288-5.246V201.6a11.364,11.364,0,0,0-22.727,0v4.51a11.29,11.29,0,0,0,1.286,5.241,18.054,18.054,0,0,0-7.755,11.8A11.382,11.382,0,0,0,8.91,233.831v4.51a11.29,11.29,0,0,0,1.286,5.242,18.025,18.025,0,0,0-8.051,15.052v5.674a2.344,2.344,0,0,0,2.344,2.344H119.8a2.344,2.344,0,0,0,2.344-2.344v-5.674a18.025,18.025,0,0,0-8.051-15.052Zm-3.4-9.752v4.51a6.676,6.676,0,1,1-13.352,0v-4.51a6.676,6.676,0,0,1,13.352,0Zm-7.773-11.309a11.378,11.378,0,0,0-10.267,11.309v4.51a11.29,11.29,0,0,0,1.288,5.245,18.181,18.181,0,0,0-3.869,3.5,18.2,18.2,0,0,0-3.893-3.5,11.29,11.29,0,0,0,1.286-5.242v-4.51A11.379,11.379,0,0,0,77.2,222.522a13.684,13.684,0,0,1,5.786-7.531,11.329,11.329,0,0,0,14.147,0A13.678,13.678,0,0,1,102.92,222.522Zm-33.494,15.82v-4.51a6.676,6.676,0,0,1,13.352,0v4.51a6.676,6.676,0,1,1-13.352,0ZM83.383,201.6a6.676,6.676,0,1,1,13.352,0v4.51a6.676,6.676,0,0,1-13.352,0Zm-27.914,0a6.676,6.676,0,1,1,13.352,0v4.51a6.676,6.676,0,0,1-13.352,0V201.6Zm-.4,13.394a11.329,11.329,0,0,0,14.147,0,13.515,13.515,0,0,1,4.225,4.16,18.07,18.07,0,0,0-1.217,4,11.382,11.382,0,0,0-7.488,10.682v4.51a11.289,11.289,0,0,0,1.286,5.242,18.2,18.2,0,0,0-3.891,3.5,18.147,18.147,0,0,0-3.87-3.494,11.289,11.289,0,0,0,1.288-5.245v-4.51a11.383,11.383,0,0,0-7.491-10.683,17.942,17.942,0,0,0-1.228-3.974,13.514,13.514,0,0,1,4.239-4.183Zm-13.56,23.35v-4.51a6.676,6.676,0,0,1,13.352,0v4.51a6.676,6.676,0,0,1-13.352,0ZM27.554,201.6a6.676,6.676,0,0,1,13.352,0v4.51a6.676,6.676,0,0,1-13.352,0Zm-.4,13.394a11.329,11.329,0,0,0,14.147,0,13.673,13.673,0,0,1,5.787,7.531,11.378,11.378,0,0,0-10.267,11.309v4.51a11.29,11.29,0,0,0,1.286,5.242,18.206,18.206,0,0,0-3.89,3.5,18.13,18.13,0,0,0-3.871-3.493,11.29,11.29,0,0,0,1.287-5.244v-4.51A11.379,11.379,0,0,0,21.37,222.522,13.687,13.687,0,0,1,27.157,214.991ZM13.6,233.831a6.676,6.676,0,0,1,13.352,0v4.51a6.676,6.676,0,0,1-13.352,0Zm-6.765,24.8A13.374,13.374,0,0,1,13.2,247.224a11.328,11.328,0,0,0,14.148,0,13.5,13.5,0,0,1,4.221,4.154,18.1,18.1,0,0,0-1.509,7.256v3.33H6.832Zm27.914,0a13.374,13.374,0,0,1,6.366-11.411,11.329,11.329,0,0,0,14.148,0,13.509,13.509,0,0,1,4.221,4.155,18.1,18.1,0,0,0-1.508,7.256v3.33H34.746v-3.33Zm27.914,0a13.374,13.374,0,0,1,6.366-11.411,11.328,11.328,0,0,0,14.149,0,13.377,13.377,0,0,1,6.367,11.411v3.33H62.661Zm54.8,3.33H94.23v-3.33a18.1,18.1,0,0,0-1.509-7.255,13.534,13.534,0,0,1,4.221-4.156,11.329,11.329,0,0,0,14.148,0,13.374,13.374,0,0,1,6.366,11.411v3.33Z" transform="translate(-2.145 -190.234)"/>
    </g>
  </g>
</svg>
