<svg xmlns="http://www.w3.org/2000/svg" width="107.812" height="120" viewBox="0 0 107.812 120">
  <g id="escoger" transform="translate(-26)">
    <g id="Grupo_85188" data-name="Grupo 85188" transform="translate(28.344 2.344)">
      <path id="Trazado_147575" data-name="Trazado 147575" d="M60.067,42.472a4.687,4.687,0,0,1-6.628,0L47.368,36.4A4.687,4.687,0,0,1,54,29.773l2.756,2.756L64.879,24.4a4.687,4.687,0,0,1,6.628,6.628Zm-.629,14.4a23.437,23.437,0,0,0,9.31-1.928,5.494,5.494,0,0,1,5.318-4.634,5.12,5.12,0,0,1,1.425.2,23.438,23.438,0,1,0-16.053,6.361Z" transform="translate(-36 -10)" fill="#26a69a" fill-rule="evenodd"/>
      <path id="Trazado_147576" data-name="Trazado 147576" d="M86.09,85.038a4.687,4.687,0,0,0,6.628,0l11.44-11.44a4.687,4.687,0,1,0-6.628-6.628L89.4,75.1l-2.756-2.756a4.687,4.687,0,0,0-6.628,6.628Z" transform="translate(-68.652 -52.566)" fill="#fff" fill-rule="evenodd"/>
      <path id="Trazado_147577" data-name="Trazado 147577" d="M329.109,69.737l3.315,3.315-3.315,3.315a4.687,4.687,0,0,0,6.629,6.629l3.315-3.315,3.315,3.315A4.687,4.687,0,0,0,349,76.366l-3.314-3.315L349,69.737a4.687,4.687,0,1,0-6.629-6.629l-3.315,3.315-3.314-3.315a4.688,4.688,0,0,0-6.629,6.629Z" transform="translate(-259.365 -49.614)" fill="#fff" fill-rule="evenodd"/>
      <path id="Trazado_147578" data-name="Trazado 147578" d="M292.809,33.437l-3.315-3.315a4.687,4.687,0,1,1,6.629-6.629l3.315,3.315,3.315-3.315a4.687,4.687,0,0,1,6.629,6.629l-3.314,3.315,3.315,3.315a4.687,4.687,0,0,1-6.629,6.629l-3.315-3.315-3.315,3.315a4.687,4.687,0,0,1-6.629-6.629Zm30.066,0a23.437,23.437,0,1,0-23.437,23.437A23.437,23.437,0,0,0,322.876,33.437Z" transform="translate(-219.751 -10)" fill="#ffca28" fill-rule="evenodd"/>
      <path id="Trazado_147579" data-name="Trazado 147579" d="M150.088,218.335c-2.826,1.156-4.4,1.638-5.831,4.6-1.341,2.775-2.583,8.531-1.478,11.491,4.33,11.6,10.892,11.061,10.989,22.578h34.073c.033-6.477,5.481-16.638,5.481-23.115V218.033c0-8.085-8.7-10.268-11.3-7.566l0,0c-1.725-4.07-7.557-5.321-10.384-3.125l-.005,0c-2.112-4.279-8.77-4.776-10.35-1.925l-.387-17.78a5.718,5.718,0,0,0-3.979-5.436,5.11,5.11,0,0,0-1.425-.2,5.494,5.494,0,0,0-5.318,4.634,5.85,5.85,0,0,0-.086,1Z" transform="translate(-117.427 -141.69)" fill="#ffdcd5" fill-rule="evenodd"/>
    </g>
    <g id="Grupo_85189" data-name="Grupo 85189" transform="translate(26)">
      <path id="Trazado_147580" data-name="Trazado 147580" d="M99.89,68.439a9.351,9.351,0,0,0-6.157-.423,9.45,9.45,0,0,0-3.07-2.36,9.991,9.991,0,0,0-7.366-.651,9.439,9.439,0,0,0-4.658-2.736,9.637,9.637,0,0,0-4.182-.179l-.3-13.847a8.245,8.245,0,0,0-2.608-5.915A25.786,25.786,0,0,0,43.389,1.4a2.344,2.344,0,0,0,1.526,4.432,21.1,21.1,0,0,1,22.127,34.51c-.209-.017-.419-.028-.632-.028a7.777,7.777,0,0,0-7.275,5.234,21.1,21.1,0,0,1-27.3-26.631A2.344,2.344,0,0,0,27.4,17.391,25.788,25.788,0,0,0,58.661,50.629V77.415a9.448,9.448,0,0,0-5.6,5.152c-1.546,3.2-2.95,9.614-1.563,13.33a34.586,34.586,0,0,0,6.481,10.78c2.6,3.151,4.311,5.233,4.359,11A2.344,2.344,0,0,0,64.685,120H98.757a2.344,2.344,0,0,0,2.344-2.332c.014-2.857,1.339-6.89,2.62-10.79,1.407-4.283,2.861-8.711,2.861-12.337V78.687A10.625,10.625,0,0,0,99.89,68.439Zm2.005,26.1c0,2.876-1.336,6.942-2.627,10.874a61,61,0,0,0-2.672,9.9H66.917c-.532-5.807-2.864-8.638-5.317-11.616a29.74,29.74,0,0,1-5.708-9.438c-.768-2.057.124-7.026,1.392-9.652a5.068,5.068,0,0,1,1.377-1.889v7.056a2.344,2.344,0,0,0,4.687,0V48.294A3.187,3.187,0,0,1,66.409,45a3.27,3.27,0,0,1,3.061,3.344l.54,24.85a2.344,2.344,0,0,0,4.686-.1l-.134-6.148a4.237,4.237,0,0,1,2.9-.137A4.162,4.162,0,0,1,80.852,70.9a2.344,2.344,0,0,0,4.687,0,9.213,9.213,0,0,0-.137-1.591,5.752,5.752,0,0,1,3.2.558,4.118,4.118,0,0,1,2.484,3.746,2.344,2.344,0,0,0,4.687,0,8.952,8.952,0,0,0-.085-1.233,5.389,5.389,0,0,1,2.448.406,5.986,5.986,0,0,1,3.757,5.9V94.541Z" transform="translate(-26)"/>
      <path id="Trazado_147581" data-name="Trazado 147581" d="M291.783,0a25.781,25.781,0,1,0,25.781,25.781A25.81,25.81,0,0,0,291.783,0Zm0,46.875a21.094,21.094,0,1,1,21.094-21.094A21.118,21.118,0,0,1,291.783,46.875Z" transform="translate(-209.752)"/>
      <path id="Trazado_147582" data-name="Trazado 147582" d="M341.331,65.386l1.657-1.657a7.031,7.031,0,0,0-9.944-9.944l-1.657,1.657-1.657-1.657a7.031,7.031,0,0,0-9.944,9.944l1.657,1.657-1.657,1.657a7.031,7.031,0,0,0,9.944,9.944l1.657-1.657,1.657,1.657a7.031,7.031,0,0,0,9.944-9.944Zm-1.657,8.286a2.346,2.346,0,0,1-3.315,0l-3.315-3.315a2.344,2.344,0,0,0-3.315,0l-3.315,3.315a2.344,2.344,0,0,1-3.315-3.315l3.315-3.315a2.344,2.344,0,0,0,0-3.315L323.1,60.414a2.344,2.344,0,0,1,3.315-3.315l3.315,3.315a2.344,2.344,0,0,0,3.315,0L336.36,57.1a2.344,2.344,0,0,1,3.315,3.315l-3.315,3.315a2.344,2.344,0,0,0,0,3.315l3.315,3.315A2.347,2.347,0,0,1,339.674,73.673Z" transform="translate(-249.356 -39.605)"/>
      <path id="Trazado_147583" data-name="Trazado 147583" d="M70.716,72.969l6.071,6.071a7.031,7.031,0,0,0,9.943,0L98.17,67.6a7.031,7.031,0,0,0-9.943-9.943l-6.469,6.469-1.1-1.1a7.031,7.031,0,0,0-9.943,9.943ZM74.03,66.34a2.346,2.346,0,0,1,3.314,0L80.1,69.1a2.344,2.344,0,0,0,3.315,0l8.126-8.126a2.343,2.343,0,0,1,3.314,3.314l-11.44,11.44a2.343,2.343,0,0,1-3.314,0L74.03,69.654a2.346,2.346,0,0,1,0-3.314Z" transform="translate(-58.662 -42.567)"/>
      <path id="Trazado_147584" data-name="Trazado 147584" d="M57.629,33.977A2.344,2.344,0,1,0,55.9,30.057h0a2.344,2.344,0,0,0,1.734,3.919Z" transform="translate(-48.422 -22.425)"/>
    </g>
  </g>
</svg>
