<svg id="cofre" xmlns="http://www.w3.org/2000/svg" width="65.815" height="59.13" viewBox="0 0 65.815 59.13">
  <path id="Trazado_147693" data-name="Trazado 147693" d="M68.1,36l-53.225.006A5.142,5.142,0,0,0,10,41.142V87.418H73.244V41.142A5.142,5.142,0,0,0,68.1,36Z" transform="translate(-8.715 -34.715)" fill="#039be5"/>
  <rect id="Rect치ngulo_32008" data-name="Rect치ngulo 32008" width="10.284" height="5.142" transform="translate(49.104 52.703)" fill="#3c435a"/>
  <g id="Grupo_85307" data-name="Grupo 85307" transform="translate(6.162 1.285)">
    <path id="Trazado_147694" data-name="Trazado 147694" d="M100.389,216H52.571A2.57,2.57,0,0,0,50,218.571v18a2.57,2.57,0,0,0,2.571,2.571h47.818a2.57,2.57,0,0,0,2.571-2.571v-18A2.57,2.57,0,0,0,100.389,216Z" transform="translate(-49.735 -192.862)" fill="#ffca28"/>
    <path id="Trazado_147695" data-name="Trazado 147695" d="M101.165,36.129v7.584a2.57,2.57,0,0,1-2.571,2.571H50.776A2.57,2.57,0,0,1,48.2,43.713V36.129l-.265-.122c.087,0,.176-.006.265-.006h52.96Z" transform="translate(-47.94 -36)" fill="#ffca28"/>
  </g>
  <path id="Trazado_147696" data-name="Trazado 147696" d="M226.284,126.284a5.142,5.142,0,0,1-10.284,0V116h10.284Z" transform="translate(-188.235 -104.431)" fill="#d6edff"/>
  <rect id="Rect치ngulo_32009" data-name="Rect치ngulo 32009" width="10.284" height="5.142" transform="translate(6.427 52.703)" fill="#3c435a"/>
  <path id="Trazado_147697" data-name="Trazado 147697" d="M247.285,266a1.285,1.285,0,1,0,1.285,1.285A1.286,1.286,0,0,0,247.285,266Z" transform="translate(-214.378 -235.149)"/>
  <path id="Trazado_147698" data-name="Trazado 147698" d="M0,78.7a1.285,1.285,0,0,0,1.285,1.285H5.142v3.856A1.285,1.285,0,0,0,6.427,85.13H16.711A1.285,1.285,0,0,0,18,83.845V79.988H47.818v3.856A1.285,1.285,0,0,0,49.1,85.13H59.387a1.285,1.285,0,0,0,1.285-1.285V79.988h3.856A1.285,1.285,0,0,0,65.814,78.7V32.427A6.434,6.434,0,0,0,59.387,26H6.427c-.108,0-.216,0-.33.008A6.421,6.421,0,0,0,0,32.427Zm15.425,3.856H7.713V79.988h7.713Zm42.677,0H50.389V79.988H58.1ZM6.427,77.418H2.571V44H26.48v3.856a6.432,6.432,0,0,0,.131,1.285H9a3.861,3.861,0,0,0-3.856,3.856v18A3.861,3.861,0,0,0,9,74.847H56.816a3.861,3.861,0,0,0,3.856-3.856v-18a3.861,3.861,0,0,0-3.856-3.856H39.2a6.433,6.433,0,0,0,.131-1.285V44H63.244V77.418ZM7.713,28.571H58.1V35a1.287,1.287,0,0,1-1.285,1.285H9A1.287,1.287,0,0,1,7.713,35Zm0,38.692H58.1V70.99a1.287,1.287,0,0,1-1.285,1.285H9A1.287,1.287,0,0,1,7.713,70.99ZM58.1,56.979H38.048a1.285,1.285,0,1,0,0,2.571H58.1v5.142H7.713V59.55H27.767a1.285,1.285,0,1,0,0-2.571H7.713V52.994A1.287,1.287,0,0,1,9,51.709h18.77a6.422,6.422,0,0,0,10.279,0h18.77A1.287,1.287,0,0,1,58.1,52.994ZM36.764,38.854v9a3.856,3.856,0,1,1-7.713,0v-9Zm26.48-6.427v9H39.334V38.854H56.816A3.861,3.861,0,0,0,60.673,35V28.792A3.863,3.863,0,0,1,63.244,32.427Zm-58.1-3.639V35A3.861,3.861,0,0,0,9,38.854H26.48v2.571H2.571v-9A3.856,3.856,0,0,1,5.142,28.788Z" transform="translate(0 -26)"/>
  <path id="Trazado_147699" data-name="Trazado 147699" d="M247.285,171.142a1.285,1.285,0,0,0,1.285-1.285v-2.571a1.285,1.285,0,0,0-2.571,0v2.571A1.285,1.285,0,0,0,247.285,171.142Z" transform="translate(-214.378 -148.004)"/>
</svg>
