<svg xmlns="http://www.w3.org/2000/svg" width="60" height="46.469" viewBox="0 0 60 46.469">
  <g id="id-card" transform="translate(0 -57.732)">
    <g id="Grupo_85284" data-name="Grupo 85284" transform="translate(8.032 58.904)">
      <g id="Grupo_85283" data-name="Grupo 85283">
        <path id="Trazado_147681" data-name="Trazado 147681" d="M112.829,105.294h3.345a3.164,3.164,0,0,0,3.164-3.164V70.9a3.164,3.164,0,0,0-3.164-3.164H71.7A3.164,3.164,0,0,0,68.541,70.9v3.048" transform="translate(-68.541 -67.732)" fill="#4dd0e1"/>
      </g>
    </g>
    <g id="Grupo_85285" data-name="Grupo 85285" transform="translate(1.172 65.467)">
      <path id="Trazado_147682" data-name="Trazado 147682" d="M57.632,161.3H13.164A3.164,3.164,0,0,1,10,158.136V126.9a3.164,3.164,0,0,1,3.164-3.164H57.632A3.164,3.164,0,0,1,60.8,126.9v31.234A3.164,3.164,0,0,1,57.632,161.3Z" transform="translate(-10 -123.738)" fill="#039be5"/>
    </g>
    <g id="Grupo_85306" data-name="Grupo 85306" transform="translate(0 57.732)">
      <g id="Grupo_85293" data-name="Grupo 85293">
        <g id="Grupo_85286" data-name="Grupo 85286" transform="translate(5.816 16.144)">
          <path id="Trazado_147683" data-name="Trazado 147683" d="M54.819,214.854a10.372,10.372,0,1,1,10.359,0" transform="translate(-49.626 -195.493)" fill="#ffca28"/>
        </g>
        <g id="Grupo_85292" data-name="Grupo 85292">
          <g id="Grupo_85287" data-name="Grupo 85287" transform="translate(11.941 20.029)">
            <circle id="Elipse_4216" data-name="Elipse 4216" cx="4.247" cy="4.247" r="4.247" fill="#ffcbbe"/>
          </g>
          <g id="Grupo_85291" data-name="Grupo 85291">
            <g id="Grupo_85290" data-name="Grupo 85290">
              <g id="Grupo_85288" data-name="Grupo 85288" transform="translate(11.008 31.89)">
                <path id="Trazado_147684" data-name="Trazado 147684" d="M104.3,331.279v2.2a10.384,10.384,0,0,1-10.359,0v-2.2a1.416,1.416,0,0,1,1.416-1.416h7.527A1.417,1.417,0,0,1,104.3,331.279Z" transform="translate(-93.939 -329.863)" fill="#26a69a"/>
              </g>
              <g id="Grupo_85289" data-name="Grupo 85289">
                <path id="Trazado_147685" data-name="Trazado 147685" d="M55.664,57.732H11.2A4.341,4.341,0,0,0,6.86,62.068V64.3H4.336A4.341,4.341,0,0,0,0,68.631V99.865A4.341,4.341,0,0,0,4.336,104.2H48.8a4.341,4.341,0,0,0,4.336-4.336V97.638h2.524A4.341,4.341,0,0,0,60,93.3V62.068a4.341,4.341,0,0,0-4.336-4.336ZM50.8,99.865a1.994,1.994,0,0,1-1.992,1.992H4.336a1.994,1.994,0,0,1-1.992-1.992V68.631a1.994,1.994,0,0,1,1.992-1.992H48.8A1.994,1.994,0,0,1,50.8,68.631Zm6.86-6.563a1.994,1.994,0,0,1-1.992,1.992H53.14V68.631A4.341,4.341,0,0,0,48.8,64.3H9.2V62.068A1.994,1.994,0,0,1,11.2,60.076H55.664a1.994,1.994,0,0,1,1.992,1.992Z" transform="translate(0 -57.732)"/>
                <path id="Trazado_147686" data-name="Trazado 147686" d="M51.17,185.493A11.545,11.545,0,0,0,45.4,207.04h0a11.545,11.545,0,1,0,5.764-21.548Zm4.007,19.828a9.221,9.221,0,0,1-8.015,0v-1.494a.244.244,0,0,1,.244-.244h7.527a.244.244,0,0,1,.244.244Zm2.34-1.627a2.591,2.591,0,0,0-2.584-2.455H47.407a2.591,2.591,0,0,0-2.584,2.455,9.2,9.2,0,1,1,12.7,0Z" transform="translate(-34.982 -170.521)"/>
                <path id="Trazado_147687" data-name="Trazado 147687" d="M97.313,218.646a5.419,5.419,0,1,0,5.419,5.419A5.425,5.425,0,0,0,97.313,218.646Zm0,8.494a3.075,3.075,0,1,1,3.075-3.075A3.079,3.079,0,0,1,97.313,227.14Z" transform="translate(-81.125 -199.789)"/>
              </g>
            </g>
          </g>
        </g>
      </g>
      <g id="Grupo_85305" data-name="Grupo 85305" transform="translate(31.076 16.674)">
        <g id="Grupo_85298" data-name="Grupo 85298">
          <g id="Grupo_85295" data-name="Grupo 85295" transform="translate(15.079 0.004)">
            <g id="Grupo_85294" data-name="Grupo 85294">
              <path id="Trazado_147688" data-name="Trazado 147688" d="M395.023,202.391a1.171,1.171,0,1,1,1.143-.916A1.182,1.182,0,0,1,395.023,202.391Z" transform="translate(-393.854 -200.051)"/>
            </g>
          </g>
          <g id="Grupo_85297" data-name="Grupo 85297">
            <g id="Grupo_85296" data-name="Grupo 85296">
              <path id="Trazado_147689" data-name="Trazado 147689" d="M276.433,202.364H266.351a1.172,1.172,0,0,1,0-2.344h10.082a1.172,1.172,0,0,1,0,2.344Z" transform="translate(-265.179 -200.02)"/>
            </g>
          </g>
        </g>
        <g id="Grupo_85300" data-name="Grupo 85300" transform="translate(0 5.78)">
          <g id="Grupo_85299" data-name="Grupo 85299">
            <path id="Trazado_147690" data-name="Trazado 147690" d="M281.428,251.686H266.351a1.172,1.172,0,0,1,0-2.344h15.077a1.172,1.172,0,1,1,0,2.344Z" transform="translate(-265.179 -249.342)"/>
          </g>
        </g>
        <g id="Grupo_85302" data-name="Grupo 85302" transform="translate(0 11.56)">
          <g id="Grupo_85301" data-name="Grupo 85301">
            <path id="Trazado_147691" data-name="Trazado 147691" d="M281.428,301.008H266.351a1.172,1.172,0,0,1,0-2.344h15.077a1.172,1.172,0,1,1,0,2.344Z" transform="translate(-265.179 -298.664)"/>
          </g>
        </g>
        <g id="Grupo_85304" data-name="Grupo 85304" transform="translate(7.342 17.34)">
          <g id="Grupo_85303" data-name="Grupo 85303">
            <path id="Trazado_147692" data-name="Trazado 147692" d="M336.739,350.329H329a1.172,1.172,0,0,1,0-2.344h7.734a1.172,1.172,0,0,1,0,2.344Z" transform="translate(-327.833 -347.985)"/>
          </g>
        </g>
      </g>
    </g>
  </g>
</svg>
